<?xml version="1.0" encoding="utf-8" ?>
<svg baseProfile="full" height="294" version="1.1" width="173" xmlns="http://www.w3.org/2000/svg" xmlns:ev="http://www.w3.org/2001/xml-events" xmlns:xlink="http://www.w3.org/1999/xlink"><defs /><path d="M 122 255 L 122 257 L 123 258 L 131 258 L 132 257 L 132 255 Z" fill="none" stroke="black" stroke-width="1" /><path d="M 108 247 L 107 248 L 106 248 L 104 250 L 104 251 L 103 252 L 103 261 L 107 265 L 109 265 L 110 266 L 113 266 L 114 265 L 115 265 L 116 264 L 117 264 L 118 263 L 118 262 L 119 261 L 119 260 L 116 260 L 116 261 L 114 263 L 112 263 L 111 264 L 110 263 L 109 263 L 106 260 L 106 259 L 105 258 L 106 257 L 119 257 L 119 252 L 118 251 L 118 250 L 116 248 L 115 248 L 114 247 Z" fill="none" stroke="black" stroke-width="1" /><path d="M 84 247 L 84 272 L 86 272 L 86 265 L 87 264 L 88 265 L 89 265 L 90 266 L 93 266 L 94 265 L 95 265 L 98 262 L 98 261 L 99 260 L 99 252 L 98 251 L 98 250 L 95 247 L 89 247 L 87 249 L 86 248 L 86 247 Z" fill="none" stroke="black" stroke-width="1" /><path d="M 67 247 L 66 248 L 65 248 L 63 250 L 63 252 L 65 252 L 68 249 L 73 249 L 75 251 L 75 253 L 74 254 L 73 254 L 72 255 L 67 255 L 66 256 L 65 256 L 64 257 L 63 257 L 63 258 L 62 259 L 62 262 L 63 263 L 63 264 L 64 265 L 66 265 L 67 266 L 70 266 L 71 265 L 72 265 L 73 264 L 75 264 L 76 265 L 79 265 L 78 264 L 78 251 L 77 250 L 77 249 L 75 247 Z" fill="none" stroke="black" stroke-width="1" /><path d="M 140 240 L 139 241 L 138 241 L 136 243 L 136 244 L 135 245 L 135 252 L 137 254 L 137 255 L 138 255 L 139 256 L 141 256 L 142 257 L 143 256 L 145 256 L 146 255 L 147 255 L 148 256 L 148 259 L 147 260 L 147 261 L 145 263 L 143 263 L 142 264 L 141 263 L 140 263 L 138 261 L 138 260 L 135 260 L 136 261 L 136 263 L 138 265 L 140 265 L 141 266 L 144 266 L 145 265 L 146 265 L 147 264 L 148 264 L 148 263 L 150 261 L 150 259 L 151 258 L 151 246 L 150 245 L 150 244 L 147 241 L 146 241 L 145 240 Z" fill="none" stroke="black" stroke-width="1" /><path d="M 44 240 L 44 265 L 46 265 L 46 254 L 47 253 L 47 251 L 48 250 L 49 250 L 50 249 L 53 249 L 55 251 L 55 252 L 56 253 L 56 265 L 58 265 L 58 250 L 57 249 L 57 248 L 56 248 L 55 247 L 49 247 L 47 249 L 46 248 L 46 240 Z" fill="none" stroke="black" stroke-width="1" /><path d="M 24 240 L 22 242 L 21 242 L 21 243 L 20 244 L 20 249 L 23 252 L 25 252 L 26 253 L 28 253 L 29 254 L 32 254 L 33 255 L 34 255 L 36 257 L 36 260 L 34 262 L 33 262 L 32 263 L 27 263 L 26 262 L 25 262 L 22 259 L 22 258 L 21 257 L 19 257 L 19 260 L 20 261 L 20 262 L 22 264 L 23 264 L 24 265 L 26 265 L 27 266 L 31 266 L 32 265 L 34 265 L 35 264 L 36 264 L 38 262 L 38 261 L 39 260 L 39 256 L 35 252 L 33 252 L 32 251 L 30 251 L 29 250 L 26 250 L 25 249 L 24 249 L 23 248 L 23 245 L 26 242 L 31 242 L 32 243 L 33 243 L 35 245 L 35 247 L 38 247 L 38 245 L 37 244 L 37 243 L 35 241 L 34 241 L 33 240 Z" fill="none" stroke="black" stroke-width="1" /><path d="M 62 191 L 62 193 L 70 193 L 70 191 Z" fill="none" stroke="black" stroke-width="1" /><path d="M 113 178 L 113 179 L 114 180 L 114 181 L 117 184 L 117 185 L 119 187 L 119 189 L 118 190 L 118 191 L 115 194 L 115 195 L 112 198 L 112 199 L 115 199 L 115 198 L 118 195 L 118 194 L 121 191 L 124 194 L 124 195 L 126 197 L 126 198 L 127 199 L 130 199 L 129 198 L 129 197 L 127 195 L 127 194 L 124 191 L 124 190 L 123 189 L 123 187 L 126 184 L 126 183 L 129 180 L 129 178 L 127 178 L 127 179 L 124 182 L 124 183 L 121 186 L 119 184 L 119 183 L 117 181 L 117 180 L 115 178 Z" fill="none" stroke="black" stroke-width="1" /><path d="M 93 178 L 93 179 L 94 180 L 94 181 L 97 184 L 97 185 L 99 187 L 99 189 L 98 190 L 98 191 L 95 194 L 95 195 L 92 198 L 92 199 L 95 199 L 95 198 L 98 195 L 98 194 L 101 191 L 104 194 L 104 195 L 106 197 L 106 198 L 107 199 L 110 199 L 109 198 L 109 197 L 107 195 L 107 194 L 104 191 L 104 190 L 103 189 L 103 187 L 106 184 L 106 183 L 109 180 L 109 178 L 107 178 L 107 179 L 104 182 L 104 183 L 101 186 L 99 184 L 99 183 L 97 181 L 97 180 L 95 178 Z" fill="none" stroke="black" stroke-width="1" /><path d="M 73 178 L 73 179 L 74 180 L 74 181 L 77 184 L 77 185 L 79 187 L 79 189 L 78 190 L 78 191 L 75 194 L 75 195 L 72 198 L 72 199 L 75 199 L 75 198 L 78 195 L 78 194 L 81 191 L 84 194 L 84 195 L 86 197 L 86 198 L 87 199 L 90 199 L 89 198 L 89 197 L 87 195 L 87 194 L 84 191 L 84 190 L 83 189 L 83 187 L 86 184 L 86 183 L 89 180 L 89 178 L 87 178 L 87 179 L 84 182 L 84 183 L 81 186 L 79 184 L 79 183 L 77 181 L 77 180 L 75 178 Z" fill="none" stroke="black" stroke-width="1" /><path d="M 44 178 L 44 199 L 46 199 L 46 192 L 47 191 L 53 191 L 54 190 L 56 190 L 57 189 L 58 189 L 58 188 L 59 187 L 59 181 L 57 179 L 55 179 L 54 178 Z" fill="none" stroke="black" stroke-width="1" /><path d="M 79 19 L 78 20 L 73 20 L 72 21 L 69 21 L 68 22 L 66 22 L 65 23 L 63 23 L 62 24 L 61 24 L 60 25 L 58 25 L 57 26 L 56 26 L 55 27 L 54 27 L 52 29 L 51 29 L 49 31 L 48 31 L 45 34 L 44 34 L 36 42 L 36 43 L 33 46 L 33 47 L 31 49 L 31 50 L 30 51 L 30 52 L 28 54 L 28 55 L 27 56 L 27 58 L 26 59 L 26 60 L 25 61 L 25 63 L 24 64 L 24 66 L 23 67 L 23 70 L 22 71 L 22 77 L 21 78 L 21 89 L 22 90 L 22 96 L 23 97 L 23 100 L 24 101 L 24 104 L 25 105 L 25 106 L 26 107 L 26 109 L 27 110 L 27 111 L 28 112 L 28 113 L 29 114 L 29 115 L 30 116 L 30 117 L 32 119 L 32 120 L 34 122 L 34 123 L 40 129 L 40 130 L 41 130 L 46 135 L 47 135 L 50 138 L 51 138 L 52 139 L 53 139 L 55 141 L 56 141 L 57 142 L 58 142 L 59 143 L 61 143 L 62 144 L 63 144 L 64 145 L 66 145 L 67 146 L 70 146 L 71 147 L 75 147 L 76 148 L 96 148 L 97 147 L 101 147 L 102 146 L 105 146 L 106 145 L 108 145 L 109 144 L 110 144 L 111 143 L 112 143 L 113 142 L 115 142 L 117 140 L 118 140 L 119 139 L 120 139 L 122 137 L 123 137 L 125 135 L 126 135 L 137 124 L 137 123 L 139 121 L 139 120 L 141 118 L 141 117 L 142 116 L 142 115 L 144 113 L 144 112 L 145 111 L 145 109 L 146 108 L 146 107 L 147 106 L 147 104 L 148 103 L 148 100 L 149 99 L 149 96 L 150 95 L 150 73 L 149 72 L 149 68 L 148 67 L 148 65 L 147 64 L 147 62 L 146 61 L 146 59 L 145 58 L 145 57 L 144 56 L 144 55 L 143 54 L 143 53 L 142 52 L 142 51 L 140 49 L 140 48 L 138 46 L 138 45 L 134 41 L 134 40 L 130 36 L 129 36 L 124 31 L 123 31 L 121 29 L 120 29 L 119 28 L 118 28 L 117 27 L 116 27 L 115 26 L 114 26 L 113 25 L 112 25 L 111 24 L 110 24 L 109 23 L 107 23 L 106 22 L 104 22 L 103 21 L 100 21 L 99 20 L 93 20 L 92 19 Z" fill="none" stroke="black" stroke-width="1" /></svg>