<?xml version="1.0" encoding="utf-8" ?>
<svg baseProfile="full" height="294" version="1.1" width="193" xmlns="http://www.w3.org/2000/svg" xmlns:ev="http://www.w3.org/2001/xml-events" xmlns:xlink="http://www.w3.org/1999/xlink"><defs /><path d="M 122 255 L 122 257 L 123 258 L 131 258 L 132 257 L 132 255 Z" fill="none" stroke="black" stroke-width="1" /><path d="M 108 247 L 107 248 L 106 248 L 104 250 L 104 251 L 103 252 L 103 261 L 107 265 L 109 265 L 110 266 L 113 266 L 114 265 L 115 265 L 116 264 L 117 264 L 118 263 L 118 262 L 119 261 L 119 260 L 116 260 L 116 261 L 114 263 L 112 263 L 111 264 L 110 263 L 109 263 L 106 260 L 106 259 L 105 258 L 106 257 L 119 257 L 119 252 L 118 251 L 118 250 L 116 248 L 115 248 L 114 247 Z" fill="none" stroke="black" stroke-width="1" /><path d="M 84 247 L 84 272 L 86 272 L 86 265 L 87 264 L 88 265 L 89 265 L 90 266 L 93 266 L 94 265 L 95 265 L 98 262 L 98 261 L 99 260 L 99 252 L 98 251 L 98 250 L 95 247 L 89 247 L 87 249 L 86 248 L 86 247 Z" fill="none" stroke="black" stroke-width="1" /><path d="M 67 247 L 66 248 L 65 248 L 64 249 L 64 250 L 63 251 L 63 252 L 66 252 L 66 251 L 68 249 L 73 249 L 75 251 L 75 252 L 76 253 L 75 254 L 73 254 L 72 255 L 67 255 L 66 256 L 65 256 L 63 258 L 63 263 L 65 265 L 66 265 L 67 266 L 70 266 L 71 265 L 73 265 L 75 263 L 76 264 L 76 265 L 79 265 L 79 264 L 78 263 L 78 249 L 77 248 L 76 248 L 75 247 Z" fill="none" stroke="black" stroke-width="1" /><path d="M 161 240 L 160 241 L 159 241 L 157 243 L 157 244 L 156 245 L 156 248 L 155 249 L 155 256 L 156 257 L 156 260 L 157 261 L 157 262 L 158 263 L 158 264 L 159 264 L 160 265 L 161 265 L 162 266 L 165 266 L 166 265 L 167 265 L 170 262 L 170 261 L 171 260 L 171 256 L 172 255 L 172 251 L 171 250 L 171 246 L 170 245 L 170 244 L 169 243 L 169 242 L 168 241 L 167 241 L 166 240 Z" fill="none" stroke="black" stroke-width="1" /><path d="M 144 240 L 144 241 L 141 244 L 140 244 L 138 246 L 137 246 L 137 249 L 138 248 L 139 248 L 140 247 L 141 247 L 142 246 L 143 247 L 143 265 L 146 265 L 146 240 Z" fill="none" stroke="black" stroke-width="1" /><path d="M 44 240 L 44 265 L 46 265 L 46 254 L 47 253 L 47 251 L 48 250 L 49 250 L 50 249 L 53 249 L 55 251 L 55 252 L 56 253 L 56 265 L 58 265 L 58 250 L 57 249 L 57 248 L 56 248 L 55 247 L 49 247 L 47 249 L 46 248 L 46 240 Z" fill="none" stroke="black" stroke-width="1" /><path d="M 24 240 L 22 242 L 21 242 L 21 243 L 20 244 L 20 249 L 23 252 L 25 252 L 26 253 L 28 253 L 29 254 L 32 254 L 33 255 L 34 255 L 36 257 L 36 260 L 34 262 L 33 262 L 32 263 L 27 263 L 26 262 L 25 262 L 22 259 L 22 258 L 21 257 L 19 257 L 19 260 L 20 261 L 20 262 L 22 264 L 23 264 L 24 265 L 26 265 L 27 266 L 31 266 L 32 265 L 34 265 L 35 264 L 36 264 L 38 262 L 38 261 L 39 260 L 39 256 L 35 252 L 33 252 L 32 251 L 30 251 L 29 250 L 26 250 L 25 249 L 24 249 L 23 248 L 23 245 L 26 242 L 31 242 L 32 243 L 33 243 L 35 245 L 35 247 L 38 247 L 38 245 L 37 244 L 37 243 L 35 241 L 34 241 L 33 240 Z" fill="none" stroke="black" stroke-width="1" /><path d="M 72 191 L 72 193 L 80 193 L 80 191 Z" fill="none" stroke="black" stroke-width="1" /><path d="M 103 178 L 103 179 L 106 182 L 106 183 L 108 185 L 108 186 L 110 188 L 110 189 L 107 192 L 107 193 L 104 196 L 104 197 L 102 199 L 105 199 L 107 197 L 107 196 L 110 193 L 110 192 L 111 191 L 112 191 L 113 192 L 113 193 L 115 195 L 115 196 L 118 199 L 125 199 L 125 198 L 128 195 L 128 194 L 131 191 L 134 194 L 134 195 L 136 197 L 136 198 L 137 199 L 140 199 L 139 198 L 139 197 L 137 195 L 137 194 L 134 191 L 134 190 L 133 189 L 133 187 L 136 184 L 136 183 L 139 180 L 139 178 L 137 178 L 137 179 L 134 182 L 134 183 L 131 186 L 129 184 L 129 183 L 127 181 L 127 180 L 125 178 L 123 178 L 123 179 L 124 180 L 124 181 L 127 184 L 127 185 L 129 187 L 129 189 L 128 190 L 128 191 L 125 194 L 125 195 L 121 199 L 119 197 L 119 196 L 116 193 L 116 192 L 114 190 L 114 189 L 113 188 L 115 186 L 115 185 L 118 182 L 118 181 L 120 179 L 120 178 L 118 178 L 116 180 L 116 181 L 113 184 L 113 185 L 112 186 L 109 183 L 109 182 L 106 179 L 106 178 Z" fill="none" stroke="black" stroke-width="1" /><path d="M 83 178 L 83 179 L 84 180 L 84 181 L 87 184 L 87 185 L 89 187 L 89 189 L 88 190 L 88 191 L 85 194 L 85 195 L 82 198 L 82 199 L 85 199 L 85 198 L 88 195 L 88 194 L 91 191 L 94 194 L 94 195 L 96 197 L 96 198 L 97 199 L 100 199 L 99 198 L 99 197 L 97 195 L 97 194 L 94 191 L 94 190 L 93 189 L 93 187 L 96 184 L 96 183 L 99 180 L 99 178 L 97 178 L 97 179 L 94 182 L 94 183 L 91 186 L 89 184 L 89 183 L 87 181 L 87 180 L 85 178 Z" fill="none" stroke="black" stroke-width="1" /><path d="M 54 178 L 54 199 L 56 199 L 56 192 L 57 191 L 63 191 L 64 190 L 66 190 L 67 189 L 68 189 L 68 188 L 69 187 L 69 181 L 67 179 L 65 179 L 64 178 Z" fill="none" stroke="black" stroke-width="1" /><path d="M 90 19 L 89 20 L 83 20 L 82 21 L 79 21 L 78 22 L 76 22 L 75 23 L 73 23 L 72 24 L 71 24 L 70 25 L 69 25 L 68 26 L 66 26 L 64 28 L 63 28 L 62 29 L 61 29 L 59 31 L 58 31 L 54 35 L 53 35 L 47 41 L 47 42 L 44 45 L 44 46 L 41 49 L 41 50 L 40 51 L 40 52 L 39 53 L 39 54 L 38 55 L 38 56 L 37 57 L 37 58 L 36 59 L 36 61 L 35 62 L 35 63 L 34 64 L 34 67 L 33 68 L 33 71 L 32 72 L 32 80 L 31 81 L 31 86 L 32 87 L 32 95 L 33 96 L 33 100 L 34 101 L 34 103 L 35 104 L 35 106 L 36 107 L 36 108 L 37 109 L 37 111 L 38 112 L 38 113 L 39 114 L 39 115 L 41 117 L 41 118 L 42 119 L 42 120 L 45 123 L 45 124 L 56 135 L 57 135 L 59 137 L 60 137 L 62 139 L 63 139 L 65 141 L 66 141 L 67 142 L 68 142 L 69 143 L 71 143 L 72 144 L 73 144 L 74 145 L 76 145 L 77 146 L 80 146 L 81 147 L 85 147 L 86 148 L 106 148 L 107 147 L 111 147 L 112 146 L 115 146 L 116 145 L 118 145 L 119 144 L 120 144 L 121 143 L 123 143 L 124 142 L 125 142 L 126 141 L 127 141 L 129 139 L 130 139 L 131 138 L 132 138 L 135 135 L 136 135 L 148 123 L 148 122 L 150 120 L 150 119 L 152 117 L 152 116 L 153 115 L 153 114 L 154 113 L 154 112 L 155 111 L 155 110 L 156 109 L 156 107 L 157 106 L 157 104 L 158 103 L 158 101 L 159 100 L 159 97 L 160 96 L 160 89 L 161 88 L 161 80 L 160 79 L 160 72 L 159 71 L 159 68 L 158 67 L 158 64 L 157 63 L 157 61 L 156 60 L 156 59 L 155 58 L 155 57 L 154 56 L 154 55 L 153 54 L 153 53 L 152 52 L 152 51 L 151 50 L 151 49 L 149 47 L 149 46 L 145 42 L 145 41 L 138 34 L 137 34 L 134 31 L 133 31 L 131 29 L 130 29 L 129 28 L 128 28 L 126 26 L 125 26 L 124 25 L 122 25 L 121 24 L 120 24 L 119 23 L 117 23 L 116 22 L 114 22 L 113 21 L 110 21 L 109 20 L 103 20 L 102 19 Z" fill="none" stroke="black" stroke-width="1" /></svg>