<?xml version="1.0" encoding="utf-8" ?>
<svg baseProfile="full" height="616" version="1.1" width="297" xmlns="http://www.w3.org/2000/svg" xmlns:ev="http://www.w3.org/2001/xml-events" xmlns:xlink="http://www.w3.org/1999/xlink"><defs /><path d="M 130 307 L 130 309 L 137 309 L 137 307 Z" fill="none" stroke="black" stroke-width="1" /><path d="M 195 294 L 194 295 L 193 295 L 192 296 L 192 297 L 191 298 L 191 299 L 190 300 L 190 310 L 191 311 L 191 312 L 192 313 L 192 314 L 193 315 L 195 315 L 196 316 L 198 316 L 199 315 L 200 315 L 202 313 L 202 312 L 203 311 L 203 299 L 202 298 L 202 297 L 200 295 L 199 295 L 198 294 Z" fill="none" stroke="black" stroke-width="1" /><path d="M 179 294 L 178 295 L 177 295 L 175 297 L 175 298 L 174 299 L 174 303 L 173 304 L 173 305 L 174 306 L 174 311 L 175 312 L 175 313 L 177 315 L 178 315 L 179 316 L 181 316 L 182 315 L 183 315 L 184 314 L 185 314 L 185 313 L 186 312 L 186 310 L 187 309 L 187 301 L 186 300 L 186 298 L 185 297 L 185 296 L 184 295 L 183 295 L 182 294 Z" fill="none" stroke="black" stroke-width="1" /><path d="M 162 294 L 161 295 L 160 295 L 158 297 L 158 298 L 157 299 L 157 303 L 156 304 L 156 305 L 157 306 L 157 311 L 158 312 L 158 313 L 160 315 L 161 315 L 162 316 L 164 316 L 165 315 L 166 315 L 167 314 L 168 314 L 168 313 L 169 312 L 169 310 L 170 309 L 170 301 L 169 300 L 169 298 L 168 297 L 168 296 L 167 295 L 166 295 L 165 294 Z" fill="none" stroke="black" stroke-width="1" /><path d="M 148 294 L 147 295 L 147 296 L 145 298 L 144 298 L 143 299 L 142 299 L 142 301 L 144 301 L 146 299 L 147 300 L 147 315 L 149 315 L 149 294 Z" fill="none" stroke="black" stroke-width="1" /><path d="M 109 294 L 109 295 L 110 296 L 110 298 L 111 299 L 111 300 L 112 301 L 112 303 L 113 304 L 113 306 L 114 307 L 114 308 L 115 309 L 115 311 L 116 312 L 116 313 L 117 314 L 117 315 L 120 315 L 120 314 L 121 313 L 121 311 L 122 310 L 122 309 L 123 308 L 123 306 L 124 305 L 124 303 L 125 302 L 125 301 L 126 300 L 126 298 L 127 297 L 127 296 L 128 295 L 128 294 L 126 294 L 125 295 L 125 296 L 124 297 L 124 299 L 123 300 L 123 302 L 122 303 L 122 304 L 121 305 L 121 307 L 120 308 L 120 310 L 118 312 L 117 311 L 117 309 L 116 308 L 116 306 L 115 305 L 115 303 L 114 302 L 114 300 L 113 299 L 113 298 L 112 297 L 112 295 L 111 294 Z" fill="none" stroke="black" stroke-width="1" /><path d="M 91 294 L 91 315 L 93 315 L 93 308 L 94 307 L 100 307 L 101 306 L 104 306 L 106 304 L 106 303 L 107 302 L 107 299 L 106 298 L 106 297 L 104 295 L 102 295 L 101 294 Z" fill="none" stroke="black" stroke-width="1" /><path d="M 20 46 L 19 47 L 19 48 L 27 48 L 28 49 L 28 149 L 26 151 L 25 151 L 19 157 L 19 158 L 18 159 L 18 407 L 28 417 L 28 536 L 18 546 L 18 574 L 19 575 L 19 576 L 20 576 L 21 577 L 22 577 L 23 578 L 25 578 L 26 579 L 27 579 L 28 580 L 30 580 L 31 581 L 32 581 L 33 582 L 35 582 L 36 583 L 38 583 L 39 584 L 41 584 L 42 585 L 44 585 L 45 586 L 47 586 L 48 587 L 50 587 L 51 588 L 53 588 L 54 589 L 57 589 L 58 590 L 60 590 L 61 591 L 64 591 L 65 592 L 67 592 L 68 593 L 72 593 L 73 594 L 78 594 L 85 587 L 88 587 L 89 588 L 93 588 L 94 589 L 100 589 L 101 590 L 107 590 L 108 591 L 116 591 L 117 592 L 128 592 L 129 593 L 164 593 L 165 592 L 177 592 L 178 591 L 186 591 L 187 590 L 193 590 L 194 589 L 199 589 L 200 588 L 205 588 L 206 587 L 209 587 L 216 594 L 221 594 L 222 593 L 225 593 L 226 592 L 229 592 L 230 591 L 233 591 L 234 590 L 236 590 L 237 589 L 240 589 L 241 588 L 243 588 L 244 587 L 246 587 L 247 586 L 249 586 L 250 585 L 252 585 L 253 584 L 255 584 L 256 583 L 258 583 L 259 582 L 260 582 L 261 581 L 263 581 L 264 580 L 265 580 L 266 579 L 268 579 L 269 578 L 270 578 L 271 577 L 273 577 L 274 576 L 275 576 L 275 545 L 270 540 L 269 540 L 265 536 L 265 418 L 275 408 L 275 157 L 273 155 L 272 155 L 265 148 L 265 49 L 266 48 L 275 48 L 275 47 L 274 46 L 265 46 L 264 47 L 264 568 L 263 569 L 262 569 L 261 570 L 259 570 L 258 571 L 256 571 L 255 572 L 254 572 L 253 573 L 251 573 L 250 574 L 248 574 L 247 575 L 245 575 L 244 576 L 242 576 L 241 577 L 239 577 L 238 578 L 236 578 L 235 579 L 232 579 L 231 580 L 229 580 L 228 581 L 225 581 L 224 582 L 221 582 L 220 583 L 217 583 L 216 584 L 212 584 L 211 585 L 207 585 L 206 586 L 202 586 L 201 587 L 196 587 L 195 588 L 189 588 L 188 589 L 181 589 L 180 590 L 170 590 L 169 591 L 125 591 L 124 590 L 114 590 L 113 589 L 106 589 L 105 588 L 99 588 L 98 587 L 93 587 L 92 586 L 87 586 L 86 585 L 83 585 L 82 584 L 78 584 L 77 583 L 74 583 L 73 582 L 70 582 L 69 581 L 66 581 L 65 580 L 63 580 L 62 579 L 59 579 L 58 578 L 56 578 L 55 577 L 53 577 L 52 576 L 50 576 L 49 575 L 47 575 L 46 574 L 44 574 L 43 573 L 41 573 L 40 572 L 38 572 L 37 571 L 36 571 L 35 570 L 33 570 L 32 569 L 31 569 L 30 568 L 30 47 L 29 46 Z" fill="none" stroke="black" stroke-width="1" /><path d="M 124 19 L 123 20 L 111 20 L 110 21 L 101 21 L 100 22 L 94 22 L 93 23 L 87 23 L 86 24 L 81 24 L 80 25 L 76 25 L 75 26 L 70 26 L 69 27 L 66 27 L 65 28 L 61 28 L 60 29 L 57 29 L 56 30 L 53 30 L 52 31 L 49 31 L 48 32 L 45 32 L 44 33 L 42 33 L 41 34 L 38 34 L 37 35 L 35 35 L 34 36 L 32 36 L 31 37 L 19 37 L 19 39 L 30 39 L 31 38 L 33 38 L 34 37 L 37 37 L 38 36 L 40 36 L 41 35 L 44 35 L 45 34 L 47 34 L 48 33 L 51 33 L 52 32 L 55 32 L 56 31 L 59 31 L 60 30 L 64 30 L 65 29 L 68 29 L 69 28 L 73 28 L 74 27 L 79 27 L 80 26 L 84 26 L 85 25 L 91 25 L 92 24 L 98 24 L 99 23 L 107 23 L 108 22 L 119 22 L 120 21 L 140 21 L 141 20 L 153 20 L 154 21 L 174 21 L 175 22 L 186 22 L 187 23 L 194 23 L 195 24 L 202 24 L 203 25 L 208 25 L 209 26 L 214 26 L 215 27 L 219 27 L 220 28 L 224 28 L 225 29 L 229 29 L 230 30 L 234 30 L 235 31 L 238 31 L 239 32 L 242 32 L 243 33 L 246 33 L 247 34 L 249 34 L 250 35 L 253 35 L 254 36 L 256 36 L 257 37 L 259 37 L 260 38 L 263 38 L 264 39 L 275 39 L 275 38 L 274 37 L 263 37 L 262 36 L 260 36 L 259 35 L 256 35 L 255 34 L 253 34 L 252 33 L 249 33 L 248 32 L 246 32 L 245 31 L 242 31 L 241 30 L 238 30 L 237 29 L 233 29 L 232 28 L 229 28 L 228 27 L 224 27 L 223 26 L 219 26 L 218 25 L 214 25 L 213 24 L 208 24 L 207 23 L 201 23 L 200 22 L 193 22 L 192 21 L 184 21 L 183 20 L 171 20 L 170 19 Z" fill="none" stroke="black" stroke-width="1" /></svg>