<?xml version="1.0" encoding="utf-8" ?>
<svg baseProfile="full" height="274" version="1.1" width="339" xmlns="http://www.w3.org/2000/svg" xmlns:ev="http://www.w3.org/2001/xml-events" xmlns:xlink="http://www.w3.org/1999/xlink"><defs /><path d="M 27 19 L 26 20 L 26 21 L 25 22 L 25 46 L 24 47 L 19 47 L 19 52 L 24 52 L 25 53 L 25 219 L 24 220 L 19 220 L 19 225 L 24 225 L 25 226 L 25 250 L 26 251 L 26 252 L 27 253 L 309 253 L 310 252 L 310 226 L 311 225 L 315 225 L 317 223 L 317 222 L 315 220 L 311 220 L 310 219 L 310 54 L 312 52 L 317 52 L 317 47 L 312 47 L 310 45 L 310 20 L 309 20 L 308 19 Z" fill="none" stroke="black" stroke-width="1" /></svg>