<?xml version="1.0" encoding="utf-8" ?>
<svg baseProfile="full" height="251" version="1.1" width="193" xmlns="http://www.w3.org/2000/svg" xmlns:ev="http://www.w3.org/2001/xml-events" xmlns:xlink="http://www.w3.org/1999/xlink"><defs /><path d="M 122 212 L 122 214 L 123 215 L 131 215 L 132 214 L 132 212 Z" fill="none" stroke="black" stroke-width="1" /><path d="M 108 204 L 106 206 L 105 206 L 105 207 L 104 208 L 104 209 L 103 210 L 103 216 L 104 217 L 104 219 L 107 222 L 109 222 L 110 223 L 113 223 L 114 222 L 116 222 L 119 219 L 119 218 L 120 217 L 117 217 L 114 220 L 109 220 L 107 218 L 107 217 L 106 216 L 106 215 L 107 214 L 120 214 L 120 211 L 119 210 L 119 208 L 118 207 L 118 206 L 117 206 L 115 204 Z" fill="none" stroke="black" stroke-width="1" /><path d="M 84 204 L 84 229 L 86 229 L 86 222 L 87 221 L 88 222 L 89 222 L 90 223 L 93 223 L 94 222 L 95 222 L 98 219 L 98 218 L 99 217 L 99 209 L 98 208 L 98 207 L 95 204 L 89 204 L 87 206 L 86 205 L 86 204 Z" fill="none" stroke="black" stroke-width="1" /><path d="M 67 204 L 66 205 L 65 205 L 64 206 L 64 207 L 63 208 L 63 209 L 66 209 L 66 208 L 68 206 L 73 206 L 75 208 L 75 209 L 76 210 L 75 211 L 73 211 L 72 212 L 67 212 L 66 213 L 65 213 L 63 215 L 63 220 L 65 222 L 66 222 L 67 223 L 70 223 L 71 222 L 73 222 L 75 220 L 76 221 L 76 222 L 79 222 L 79 221 L 78 220 L 78 206 L 77 205 L 76 205 L 75 204 Z" fill="none" stroke="black" stroke-width="1" /><path d="M 166 197 L 164 199 L 164 200 L 161 203 L 161 204 L 159 206 L 159 207 L 157 209 L 157 210 L 154 213 L 154 216 L 164 216 L 165 217 L 165 222 L 168 222 L 168 217 L 169 216 L 172 216 L 172 214 L 169 214 L 168 213 L 168 197 Z" fill="none" stroke="black" stroke-width="1" /><path d="M 144 197 L 144 198 L 141 201 L 140 201 L 138 203 L 137 203 L 137 206 L 138 205 L 139 205 L 140 204 L 141 204 L 142 203 L 143 204 L 143 222 L 146 222 L 146 197 Z" fill="none" stroke="black" stroke-width="1" /><path d="M 44 197 L 44 222 L 46 222 L 46 211 L 47 210 L 47 208 L 48 207 L 49 207 L 50 206 L 53 206 L 55 208 L 55 209 L 56 210 L 56 222 L 58 222 L 58 207 L 57 206 L 57 205 L 56 205 L 55 204 L 49 204 L 47 206 L 46 205 L 46 197 Z" fill="none" stroke="black" stroke-width="1" /><path d="M 29 196 L 28 197 L 24 197 L 23 198 L 22 198 L 21 199 L 21 200 L 20 201 L 20 206 L 23 209 L 25 209 L 26 210 L 28 210 L 29 211 L 32 211 L 33 212 L 34 212 L 36 214 L 36 217 L 34 219 L 33 219 L 32 220 L 27 220 L 26 219 L 25 219 L 22 216 L 22 214 L 19 214 L 19 217 L 20 218 L 20 219 L 22 221 L 23 221 L 24 222 L 26 222 L 27 223 L 31 223 L 32 222 L 34 222 L 35 221 L 36 221 L 38 219 L 38 218 L 39 217 L 39 213 L 35 209 L 34 209 L 33 208 L 30 208 L 29 207 L 26 207 L 25 206 L 24 206 L 23 205 L 23 202 L 26 199 L 31 199 L 32 200 L 33 200 L 35 202 L 35 204 L 38 204 L 38 202 L 37 201 L 37 200 L 35 198 L 34 198 L 33 197 L 30 197 Z" fill="none" stroke="black" stroke-width="1" /><path d="M 86 148 L 86 150 L 94 150 L 94 148 Z" fill="none" stroke="black" stroke-width="1" /><path d="M 135 135 L 134 136 L 133 136 L 132 137 L 132 138 L 131 139 L 131 140 L 130 141 L 130 151 L 131 152 L 131 153 L 132 154 L 132 155 L 133 156 L 135 156 L 136 157 L 138 157 L 139 156 L 140 156 L 142 154 L 142 153 L 143 152 L 143 140 L 142 139 L 142 138 L 140 136 L 139 136 L 138 135 Z" fill="none" stroke="black" stroke-width="1" /><path d="M 118 135 L 117 136 L 116 136 L 115 137 L 115 138 L 114 139 L 114 140 L 113 141 L 113 151 L 114 152 L 114 153 L 115 154 L 115 155 L 116 156 L 118 156 L 119 157 L 121 157 L 122 156 L 123 156 L 125 154 L 125 153 L 126 152 L 126 140 L 125 139 L 125 138 L 123 136 L 122 136 L 121 135 Z" fill="none" stroke="black" stroke-width="1" /><path d="M 102 135 L 101 136 L 99 136 L 98 137 L 98 138 L 97 139 L 97 141 L 99 141 L 99 140 L 102 137 L 105 137 L 107 139 L 107 140 L 108 141 L 107 142 L 107 143 L 97 153 L 97 154 L 96 155 L 96 156 L 110 156 L 110 154 L 101 154 L 100 153 L 104 149 L 105 149 L 108 146 L 108 145 L 109 144 L 109 143 L 110 142 L 110 140 L 109 139 L 109 138 L 107 136 L 106 136 L 105 135 Z" fill="none" stroke="black" stroke-width="1" /><path d="M 66 135 L 66 136 L 67 137 L 67 139 L 68 140 L 68 141 L 69 142 L 69 144 L 70 145 L 70 147 L 71 148 L 71 149 L 72 150 L 72 152 L 73 153 L 73 154 L 74 155 L 74 156 L 77 156 L 77 155 L 78 154 L 78 152 L 79 151 L 79 150 L 80 149 L 80 147 L 81 146 L 81 144 L 82 143 L 82 142 L 83 141 L 83 139 L 84 138 L 84 137 L 85 136 L 85 135 L 83 135 L 82 136 L 82 137 L 81 138 L 81 140 L 80 141 L 80 143 L 79 144 L 79 145 L 78 146 L 78 148 L 77 149 L 77 151 L 75 153 L 74 152 L 74 150 L 73 149 L 73 147 L 72 146 L 72 144 L 71 143 L 71 141 L 70 140 L 70 139 L 69 138 L 69 136 L 68 135 Z" fill="none" stroke="black" stroke-width="1" /><path d="M 47 135 L 47 136 L 48 137 L 48 138 L 51 141 L 51 142 L 53 144 L 53 146 L 52 147 L 52 148 L 49 151 L 49 152 L 46 155 L 46 156 L 49 156 L 49 155 L 52 152 L 52 151 L 55 148 L 58 151 L 58 152 L 60 154 L 60 155 L 61 156 L 64 156 L 63 155 L 63 154 L 61 152 L 61 151 L 58 148 L 58 147 L 57 146 L 57 144 L 60 141 L 60 140 L 63 137 L 63 135 L 61 135 L 61 136 L 58 139 L 58 140 L 55 143 L 53 141 L 53 140 L 51 138 L 51 137 L 49 135 Z" fill="none" stroke="black" stroke-width="1" /><path d="M 52 83 L 52 127 L 53 127 L 54 126 L 55 126 L 56 125 L 57 125 L 58 124 L 59 124 L 60 123 L 61 123 L 62 122 L 63 122 L 64 121 L 65 121 L 66 120 L 67 120 L 68 119 L 69 119 L 70 118 L 71 118 L 72 117 L 73 117 L 74 116 L 75 116 L 76 115 L 77 115 L 78 114 L 79 114 L 80 113 L 81 113 L 82 112 L 83 112 L 84 111 L 85 111 L 86 110 L 87 110 L 88 109 L 89 109 L 90 108 L 91 108 L 92 107 L 93 107 L 94 106 L 96 106 L 97 107 L 98 107 L 99 108 L 100 108 L 101 109 L 102 109 L 103 110 L 104 110 L 105 111 L 106 111 L 107 112 L 108 112 L 109 113 L 110 113 L 111 114 L 112 114 L 113 115 L 114 115 L 115 116 L 116 116 L 117 117 L 118 117 L 119 118 L 120 118 L 121 119 L 122 119 L 123 120 L 124 120 L 125 121 L 126 121 L 127 122 L 128 122 L 129 123 L 130 123 L 131 124 L 132 124 L 133 125 L 134 125 L 135 126 L 136 126 L 137 127 L 138 127 L 138 83 L 136 83 L 135 84 L 134 84 L 133 85 L 132 85 L 131 86 L 130 86 L 129 87 L 128 87 L 127 88 L 126 88 L 125 89 L 124 89 L 123 90 L 122 90 L 121 91 L 120 91 L 119 92 L 118 92 L 117 93 L 116 93 L 115 94 L 114 94 L 113 95 L 112 95 L 111 96 L 110 96 L 109 97 L 108 97 L 107 98 L 106 98 L 105 99 L 104 99 L 103 100 L 102 100 L 101 101 L 100 101 L 99 102 L 98 102 L 97 103 L 96 103 L 95 104 L 94 103 L 93 103 L 92 102 L 91 102 L 90 101 L 89 101 L 88 100 L 87 100 L 86 99 L 85 99 L 84 98 L 83 98 L 82 97 L 81 97 L 80 96 L 79 96 L 78 95 L 77 95 L 76 94 L 75 94 L 74 93 L 73 93 L 72 92 L 71 92 L 70 91 L 69 91 L 68 90 L 67 90 L 66 89 L 65 89 L 64 88 L 63 88 L 62 87 L 61 87 L 60 86 L 59 86 L 58 85 L 57 85 L 56 84 L 55 84 L 54 83 Z" fill="none" stroke="black" stroke-width="1" /><path d="M 91 19 L 90 20 L 88 20 L 87 21 L 85 21 L 83 23 L 82 23 L 76 29 L 76 30 L 75 31 L 75 32 L 74 33 L 74 35 L 73 36 L 73 46 L 74 47 L 74 49 L 75 50 L 75 51 L 76 52 L 76 53 L 78 55 L 78 56 L 80 58 L 81 58 L 83 60 L 84 60 L 85 61 L 86 61 L 87 62 L 89 62 L 90 63 L 93 63 L 94 64 L 94 91 L 93 92 L 92 92 L 91 91 L 90 91 L 89 90 L 88 90 L 87 89 L 86 89 L 85 88 L 84 88 L 83 87 L 82 87 L 81 86 L 80 86 L 79 85 L 78 85 L 77 84 L 76 84 L 75 83 L 74 83 L 73 82 L 72 82 L 71 81 L 70 81 L 69 80 L 68 80 L 67 79 L 66 79 L 65 78 L 64 78 L 63 77 L 62 77 L 61 76 L 60 76 L 59 75 L 58 75 L 57 74 L 56 75 L 56 76 L 57 76 L 58 77 L 59 77 L 60 78 L 61 78 L 62 79 L 63 79 L 64 80 L 65 80 L 66 81 L 67 81 L 68 82 L 69 82 L 70 83 L 71 83 L 72 84 L 73 84 L 74 85 L 75 85 L 76 86 L 77 86 L 78 87 L 79 87 L 80 88 L 81 88 L 82 89 L 83 89 L 84 90 L 85 90 L 86 91 L 87 91 L 88 92 L 89 92 L 90 93 L 91 93 L 92 94 L 93 94 L 94 95 L 96 95 L 97 94 L 98 94 L 99 93 L 100 93 L 101 92 L 102 92 L 103 91 L 104 91 L 105 90 L 106 90 L 107 89 L 108 89 L 109 88 L 110 88 L 111 87 L 112 87 L 113 86 L 114 86 L 115 85 L 116 85 L 117 84 L 118 84 L 119 83 L 120 83 L 121 82 L 122 82 L 123 81 L 124 81 L 125 80 L 126 80 L 127 79 L 128 79 L 129 78 L 130 78 L 131 77 L 132 77 L 133 76 L 134 76 L 134 75 L 133 74 L 132 75 L 131 75 L 130 76 L 129 76 L 128 77 L 127 77 L 126 78 L 125 78 L 124 79 L 123 79 L 122 80 L 121 80 L 120 81 L 119 81 L 118 82 L 117 82 L 116 83 L 115 83 L 114 84 L 113 84 L 112 85 L 111 85 L 110 86 L 109 86 L 108 87 L 107 87 L 106 88 L 105 88 L 104 89 L 103 89 L 102 90 L 101 90 L 100 91 L 99 91 L 98 92 L 97 92 L 96 91 L 96 64 L 97 63 L 100 63 L 101 62 L 103 62 L 104 61 L 105 61 L 106 60 L 107 60 L 110 57 L 111 57 L 111 56 L 114 53 L 114 52 L 115 51 L 115 50 L 116 49 L 116 47 L 117 46 L 117 37 L 116 36 L 116 33 L 115 32 L 115 31 L 113 29 L 113 28 L 108 23 L 107 23 L 105 21 L 103 21 L 102 20 L 100 20 L 99 19 Z" fill="none" stroke="black" stroke-width="1" /></svg>