<?xml version="1.0" encoding="utf-8" ?>
<svg baseProfile="full" height="631" version="1.1" width="462" xmlns="http://www.w3.org/2000/svg" xmlns:ev="http://www.w3.org/2001/xml-events" xmlns:xlink="http://www.w3.org/1999/xlink"><defs /><path d="M 37 19 L 36 20 L 34 20 L 33 21 L 32 21 L 31 22 L 30 22 L 25 27 L 25 28 L 24 29 L 24 30 L 23 31 L 23 32 L 22 33 L 22 35 L 21 36 L 21 38 L 20 39 L 20 42 L 19 43 L 19 53 L 18 54 L 18 68 L 19 69 L 19 80 L 20 81 L 20 86 L 21 87 L 21 91 L 22 92 L 22 94 L 23 95 L 23 99 L 24 100 L 24 102 L 25 103 L 25 104 L 26 105 L 26 107 L 27 108 L 27 110 L 28 111 L 28 112 L 29 113 L 29 114 L 30 115 L 30 117 L 31 118 L 31 119 L 32 120 L 32 121 L 33 122 L 33 123 L 34 124 L 34 125 L 35 126 L 35 127 L 36 128 L 36 129 L 38 131 L 38 132 L 39 133 L 39 134 L 41 136 L 41 137 L 42 138 L 42 139 L 44 141 L 44 142 L 47 145 L 47 146 L 49 148 L 49 149 L 52 152 L 52 153 L 56 157 L 56 158 L 63 165 L 63 166 L 76 179 L 77 179 L 84 186 L 85 186 L 89 190 L 90 190 L 94 194 L 95 194 L 97 196 L 98 196 L 101 199 L 102 199 L 103 200 L 104 200 L 107 203 L 108 203 L 109 204 L 110 204 L 111 205 L 111 206 L 105 212 L 105 213 L 101 217 L 101 218 L 98 221 L 98 222 L 96 224 L 96 225 L 94 227 L 94 228 L 93 229 L 93 230 L 91 232 L 91 233 L 90 234 L 90 235 L 89 236 L 89 237 L 88 238 L 88 239 L 87 240 L 87 241 L 86 242 L 86 243 L 85 244 L 85 246 L 84 247 L 84 249 L 83 250 L 83 251 L 82 252 L 82 253 L 81 254 L 81 257 L 80 258 L 80 260 L 79 261 L 79 263 L 78 264 L 78 266 L 77 267 L 77 269 L 76 270 L 76 274 L 75 275 L 75 278 L 74 279 L 74 281 L 73 282 L 73 284 L 72 285 L 72 286 L 71 287 L 71 289 L 69 291 L 69 292 L 68 293 L 68 294 L 66 296 L 66 297 L 64 299 L 64 300 L 62 302 L 62 303 L 60 305 L 60 306 L 59 307 L 59 308 L 58 309 L 58 311 L 57 312 L 57 315 L 56 316 L 30 316 L 29 317 L 28 317 L 28 319 L 29 320 L 37 320 L 38 321 L 49 321 L 50 322 L 54 322 L 55 323 L 55 340 L 54 341 L 53 341 L 52 342 L 48 342 L 47 343 L 43 343 L 42 344 L 39 344 L 38 345 L 36 345 L 35 346 L 34 346 L 33 347 L 33 348 L 32 349 L 32 350 L 33 351 L 38 351 L 39 350 L 42 350 L 43 349 L 47 349 L 48 348 L 52 348 L 53 347 L 56 347 L 58 349 L 58 351 L 59 352 L 59 353 L 60 354 L 60 355 L 61 356 L 61 357 L 62 358 L 62 359 L 63 360 L 63 361 L 64 362 L 64 363 L 67 366 L 67 367 L 71 371 L 71 372 L 78 379 L 79 379 L 84 384 L 85 384 L 88 387 L 89 387 L 91 389 L 92 389 L 94 391 L 95 391 L 96 392 L 97 392 L 98 393 L 99 393 L 101 395 L 102 395 L 103 396 L 104 396 L 105 397 L 106 397 L 107 398 L 108 398 L 109 399 L 110 399 L 111 400 L 112 400 L 113 401 L 115 401 L 116 402 L 117 402 L 118 403 L 119 403 L 120 404 L 122 404 L 123 405 L 124 405 L 125 406 L 126 406 L 127 407 L 126 408 L 126 409 L 123 412 L 123 413 L 122 414 L 122 415 L 120 417 L 120 418 L 119 419 L 119 420 L 118 421 L 118 423 L 117 424 L 117 425 L 116 426 L 116 428 L 115 429 L 115 432 L 114 433 L 114 437 L 113 438 L 113 454 L 114 455 L 114 457 L 115 458 L 115 460 L 119 464 L 120 464 L 121 465 L 123 465 L 124 466 L 124 496 L 125 497 L 125 506 L 126 507 L 126 516 L 127 517 L 127 536 L 126 537 L 126 541 L 125 542 L 125 545 L 124 546 L 124 548 L 122 550 L 122 551 L 115 558 L 115 559 L 111 563 L 111 564 L 109 566 L 109 567 L 108 568 L 108 569 L 107 570 L 107 573 L 106 574 L 106 582 L 107 583 L 107 586 L 111 590 L 111 591 L 112 591 L 114 593 L 115 593 L 116 594 L 117 594 L 118 595 L 119 595 L 120 596 L 122 596 L 123 597 L 128 597 L 129 598 L 143 598 L 144 597 L 150 597 L 151 596 L 154 596 L 155 595 L 157 595 L 158 594 L 160 594 L 163 597 L 163 598 L 166 601 L 167 601 L 169 603 L 170 603 L 171 604 L 172 604 L 173 605 L 174 605 L 175 606 L 178 606 L 179 607 L 184 607 L 185 608 L 204 608 L 205 607 L 209 607 L 210 606 L 213 606 L 214 605 L 215 605 L 216 604 L 217 604 L 218 603 L 219 603 L 220 602 L 221 602 L 225 598 L 226 598 L 228 596 L 228 595 L 231 592 L 231 591 L 233 589 L 233 588 L 235 586 L 235 585 L 236 584 L 236 583 L 237 582 L 237 581 L 239 579 L 241 579 L 242 580 L 242 581 L 241 582 L 241 585 L 240 586 L 240 593 L 241 594 L 241 595 L 242 596 L 242 597 L 243 598 L 243 599 L 248 604 L 249 604 L 250 605 L 251 605 L 252 606 L 254 606 L 255 607 L 257 607 L 258 608 L 262 608 L 263 609 L 293 609 L 294 608 L 301 608 L 302 607 L 308 607 L 309 606 L 315 606 L 316 605 L 320 605 L 321 604 L 324 604 L 325 603 L 328 603 L 329 602 L 332 602 L 333 601 L 335 601 L 336 600 L 339 600 L 340 599 L 341 599 L 342 598 L 344 598 L 345 597 L 346 597 L 347 596 L 348 596 L 349 595 L 350 595 L 351 594 L 352 594 L 358 588 L 358 586 L 359 585 L 359 576 L 365 570 L 366 570 L 368 572 L 369 572 L 370 573 L 371 573 L 372 574 L 373 574 L 374 575 L 375 575 L 376 576 L 379 576 L 380 577 L 387 577 L 388 578 L 393 578 L 394 577 L 399 577 L 400 576 L 403 576 L 404 575 L 405 575 L 406 574 L 407 574 L 408 573 L 409 573 L 415 567 L 415 566 L 416 565 L 416 563 L 417 562 L 417 561 L 418 560 L 419 560 L 420 559 L 421 559 L 423 557 L 424 557 L 427 554 L 428 554 L 429 553 L 429 552 L 433 548 L 433 547 L 434 546 L 434 545 L 435 544 L 435 542 L 436 541 L 436 530 L 435 529 L 435 528 L 434 527 L 434 526 L 433 525 L 434 524 L 434 523 L 436 521 L 436 520 L 437 519 L 437 518 L 438 517 L 438 515 L 439 514 L 439 511 L 440 510 L 440 500 L 439 499 L 439 496 L 438 495 L 438 493 L 437 492 L 437 491 L 434 488 L 434 487 L 433 487 L 431 485 L 430 485 L 429 484 L 428 484 L 427 483 L 425 483 L 424 482 L 418 482 L 417 481 L 417 477 L 416 476 L 416 473 L 415 472 L 415 471 L 410 466 L 409 466 L 408 465 L 406 465 L 405 464 L 397 464 L 396 465 L 393 465 L 392 466 L 391 466 L 390 467 L 388 467 L 387 468 L 386 468 L 383 471 L 382 471 L 374 479 L 373 478 L 373 476 L 372 475 L 372 474 L 371 473 L 371 472 L 370 471 L 370 470 L 369 469 L 369 468 L 367 466 L 367 465 L 365 463 L 365 462 L 363 460 L 363 459 L 358 454 L 358 453 L 352 447 L 351 447 L 345 441 L 344 441 L 341 438 L 340 438 L 337 435 L 336 435 L 334 433 L 333 433 L 331 431 L 330 431 L 328 429 L 327 429 L 326 428 L 325 428 L 323 426 L 322 426 L 320 424 L 319 424 L 318 423 L 317 423 L 315 421 L 314 421 L 311 418 L 310 418 L 304 412 L 303 412 L 302 411 L 302 410 L 297 405 L 297 404 L 296 403 L 296 402 L 295 401 L 296 400 L 298 400 L 300 398 L 301 398 L 302 397 L 303 397 L 304 396 L 305 396 L 306 395 L 307 395 L 309 393 L 310 393 L 312 391 L 313 391 L 316 388 L 317 388 L 321 384 L 322 384 L 334 372 L 334 371 L 336 369 L 337 369 L 338 370 L 339 370 L 340 371 L 341 371 L 343 373 L 344 373 L 346 375 L 347 375 L 349 377 L 350 377 L 351 378 L 354 378 L 355 377 L 355 375 L 350 370 L 349 370 L 348 369 L 347 369 L 345 367 L 344 367 L 342 365 L 341 365 L 340 364 L 340 362 L 341 361 L 341 360 L 342 359 L 342 358 L 343 357 L 343 355 L 344 354 L 344 352 L 345 351 L 345 349 L 346 348 L 346 342 L 347 341 L 347 339 L 348 338 L 350 338 L 351 339 L 354 339 L 355 340 L 359 340 L 360 341 L 362 341 L 363 340 L 364 340 L 364 337 L 362 335 L 360 335 L 359 334 L 357 334 L 356 333 L 354 333 L 353 332 L 350 332 L 349 331 L 348 331 L 347 330 L 347 323 L 346 322 L 346 320 L 345 319 L 345 317 L 344 316 L 344 315 L 343 314 L 343 313 L 342 312 L 342 311 L 341 310 L 341 309 L 340 308 L 340 307 L 339 306 L 339 305 L 338 304 L 338 303 L 337 302 L 337 299 L 336 298 L 336 296 L 335 295 L 335 292 L 334 291 L 334 287 L 333 286 L 333 280 L 332 279 L 332 274 L 331 273 L 331 269 L 330 268 L 330 264 L 329 263 L 329 259 L 328 258 L 328 255 L 327 254 L 327 251 L 326 250 L 326 248 L 325 247 L 325 246 L 324 245 L 324 243 L 323 242 L 323 240 L 322 239 L 322 238 L 321 237 L 321 236 L 320 235 L 320 234 L 319 233 L 319 232 L 317 230 L 317 229 L 315 227 L 315 226 L 314 225 L 314 224 L 312 222 L 312 221 L 311 220 L 313 218 L 314 218 L 315 217 L 316 217 L 317 216 L 318 216 L 319 215 L 320 215 L 322 213 L 323 213 L 324 212 L 325 212 L 327 210 L 328 210 L 330 208 L 331 208 L 332 207 L 333 207 L 336 204 L 337 204 L 339 202 L 340 202 L 342 200 L 343 200 L 346 197 L 347 197 L 350 194 L 351 194 L 356 189 L 357 189 L 365 181 L 366 181 L 376 171 L 376 170 L 383 163 L 383 162 L 388 157 L 388 156 L 391 153 L 391 152 L 394 149 L 394 148 L 396 146 L 396 145 L 398 143 L 398 142 L 400 140 L 400 139 L 402 137 L 402 136 L 403 135 L 403 134 L 404 133 L 404 132 L 406 130 L 406 129 L 407 128 L 407 127 L 408 126 L 408 125 L 409 124 L 409 123 L 410 122 L 410 121 L 411 120 L 411 119 L 412 118 L 412 117 L 413 116 L 413 115 L 414 114 L 414 112 L 415 111 L 415 110 L 416 109 L 416 108 L 417 107 L 417 105 L 418 104 L 418 102 L 419 101 L 419 100 L 420 99 L 420 97 L 421 96 L 421 93 L 422 92 L 422 90 L 423 89 L 423 87 L 424 86 L 424 84 L 425 83 L 425 79 L 426 78 L 426 74 L 427 73 L 427 70 L 428 69 L 428 64 L 429 63 L 429 46 L 428 45 L 428 41 L 427 40 L 427 39 L 426 38 L 426 37 L 425 36 L 425 35 L 423 33 L 423 32 L 422 31 L 421 31 L 419 29 L 418 29 L 417 28 L 416 28 L 415 27 L 413 27 L 412 26 L 391 26 L 390 27 L 387 27 L 386 28 L 383 28 L 382 29 L 379 29 L 378 30 L 376 30 L 375 31 L 373 31 L 372 32 L 371 32 L 370 33 L 368 33 L 367 34 L 366 34 L 365 35 L 363 35 L 362 36 L 361 36 L 360 37 L 359 37 L 358 38 L 357 38 L 356 39 L 355 39 L 354 40 L 353 40 L 351 42 L 350 42 L 349 43 L 348 43 L 346 45 L 345 45 L 343 47 L 342 47 L 341 48 L 340 48 L 337 51 L 336 51 L 333 54 L 332 54 L 327 59 L 326 59 L 306 79 L 306 80 L 302 84 L 302 85 L 299 88 L 299 89 L 296 92 L 296 93 L 294 95 L 294 96 L 292 98 L 292 99 L 290 101 L 290 102 L 288 104 L 288 105 L 287 106 L 287 107 L 286 108 L 286 109 L 284 111 L 284 112 L 283 113 L 283 114 L 282 115 L 282 116 L 281 117 L 281 118 L 280 119 L 280 120 L 279 121 L 279 122 L 278 123 L 278 125 L 277 126 L 277 127 L 276 128 L 276 129 L 275 130 L 275 131 L 274 132 L 274 134 L 273 135 L 273 137 L 272 138 L 272 139 L 271 140 L 271 142 L 270 143 L 270 145 L 269 146 L 269 149 L 268 150 L 268 152 L 267 153 L 267 155 L 266 156 L 266 159 L 265 160 L 265 164 L 264 165 L 264 168 L 263 169 L 263 172 L 262 173 L 262 178 L 261 179 L 261 182 L 260 183 L 258 183 L 257 182 L 256 182 L 255 181 L 253 181 L 252 180 L 250 180 L 249 179 L 247 179 L 246 178 L 244 178 L 243 177 L 241 177 L 240 176 L 238 176 L 226 164 L 225 164 L 224 163 L 223 163 L 221 161 L 220 161 L 219 160 L 218 160 L 217 159 L 216 159 L 215 158 L 214 158 L 213 157 L 212 157 L 211 156 L 210 156 L 209 155 L 206 155 L 205 154 L 202 154 L 201 153 L 188 153 L 187 154 L 186 154 L 184 156 L 184 157 L 183 158 L 183 161 L 184 162 L 184 164 L 185 165 L 184 166 L 175 166 L 174 167 L 170 167 L 169 168 L 167 168 L 164 171 L 164 172 L 163 173 L 163 177 L 162 178 L 160 178 L 159 179 L 156 179 L 155 178 L 155 167 L 154 166 L 154 159 L 153 158 L 153 152 L 152 151 L 152 146 L 151 145 L 151 141 L 150 140 L 150 137 L 149 136 L 149 133 L 148 132 L 148 129 L 147 128 L 147 126 L 146 125 L 146 123 L 145 122 L 145 120 L 144 119 L 144 117 L 143 116 L 143 114 L 142 113 L 142 111 L 141 110 L 141 109 L 140 108 L 140 106 L 139 105 L 139 104 L 138 103 L 138 101 L 137 100 L 137 99 L 135 97 L 135 95 L 134 94 L 134 93 L 133 92 L 133 91 L 131 89 L 131 88 L 130 87 L 130 86 L 129 85 L 129 84 L 128 83 L 128 82 L 126 80 L 126 79 L 125 78 L 125 77 L 123 75 L 123 74 L 121 72 L 121 71 L 118 68 L 118 67 L 115 64 L 115 63 L 110 58 L 110 57 L 97 44 L 96 44 L 91 39 L 90 39 L 88 37 L 87 37 L 84 34 L 83 34 L 81 32 L 80 32 L 78 30 L 77 30 L 76 29 L 75 29 L 74 28 L 73 28 L 72 27 L 71 27 L 70 26 L 69 26 L 68 25 L 67 25 L 66 24 L 65 24 L 64 23 L 62 23 L 61 22 L 60 22 L 59 21 L 56 21 L 55 20 L 52 20 L 51 19 Z" fill="none" stroke="black" stroke-width="1" /></svg>