<?xml version="1.0" encoding="utf-8" ?>
<svg baseProfile="full" height="158" version="1.1" width="166" xmlns="http://www.w3.org/2000/svg" xmlns:ev="http://www.w3.org/2001/xml-events" xmlns:xlink="http://www.w3.org/1999/xlink"><defs /><path d="M 96 18 L 95 19 L 95 20 L 93 22 L 93 23 L 91 25 L 91 26 L 88 29 L 88 30 L 87 31 L 87 32 L 86 33 L 86 34 L 85 35 L 85 36 L 84 37 L 84 38 L 82 40 L 82 41 L 81 42 L 81 43 L 79 45 L 79 46 L 77 48 L 77 49 L 75 51 L 75 52 L 72 55 L 72 56 L 70 58 L 70 59 L 54 75 L 53 75 L 52 76 L 51 76 L 49 78 L 48 78 L 47 79 L 46 79 L 45 80 L 44 80 L 43 81 L 42 81 L 41 82 L 40 82 L 39 83 L 38 83 L 37 84 L 36 84 L 34 86 L 33 86 L 31 88 L 30 88 L 22 96 L 22 97 L 21 98 L 21 99 L 20 100 L 20 101 L 19 102 L 19 116 L 20 117 L 20 119 L 21 120 L 21 122 L 22 123 L 22 124 L 23 125 L 23 126 L 24 127 L 24 128 L 26 130 L 27 130 L 30 133 L 31 133 L 33 135 L 34 135 L 35 136 L 37 136 L 38 137 L 42 137 L 43 136 L 45 136 L 46 135 L 48 135 L 50 133 L 51 133 L 52 132 L 53 132 L 55 130 L 56 130 L 57 129 L 59 129 L 60 128 L 62 128 L 63 127 L 64 127 L 65 126 L 67 126 L 68 125 L 69 125 L 70 124 L 72 124 L 73 123 L 74 123 L 75 122 L 77 122 L 78 121 L 80 121 L 81 120 L 82 120 L 83 119 L 84 119 L 85 118 L 86 118 L 87 117 L 88 117 L 89 116 L 90 116 L 91 115 L 92 115 L 93 114 L 94 114 L 95 113 L 96 113 L 97 112 L 98 112 L 99 111 L 100 111 L 102 109 L 103 109 L 104 108 L 105 108 L 107 106 L 108 106 L 110 104 L 111 104 L 114 101 L 115 101 L 119 97 L 120 97 L 132 85 L 132 84 L 135 81 L 135 80 L 137 78 L 137 77 L 138 76 L 138 75 L 140 73 L 140 72 L 141 71 L 141 70 L 142 69 L 142 68 L 143 67 L 143 66 L 144 65 L 144 64 L 145 63 L 145 62 L 146 61 L 145 61 L 143 63 L 143 64 L 141 66 L 141 67 L 139 69 L 139 70 L 137 72 L 137 73 L 133 77 L 133 78 L 128 83 L 128 84 L 127 85 L 126 85 L 126 86 L 121 91 L 120 91 L 115 96 L 114 96 L 110 100 L 109 100 L 107 102 L 106 102 L 104 104 L 103 104 L 101 106 L 100 106 L 98 108 L 97 108 L 96 109 L 95 109 L 93 111 L 91 111 L 90 112 L 89 112 L 88 113 L 87 113 L 86 114 L 85 114 L 83 116 L 81 116 L 80 117 L 79 117 L 78 118 L 76 118 L 75 119 L 73 119 L 72 120 L 70 120 L 69 121 L 68 121 L 67 122 L 65 122 L 64 123 L 63 123 L 62 124 L 60 124 L 59 125 L 58 125 L 57 126 L 56 126 L 55 127 L 54 127 L 53 128 L 52 128 L 51 129 L 50 129 L 48 131 L 47 131 L 46 132 L 45 132 L 44 133 L 36 133 L 35 132 L 35 131 L 34 130 L 34 123 L 35 122 L 35 120 L 36 119 L 36 117 L 37 116 L 37 115 L 38 114 L 38 113 L 40 111 L 40 110 L 42 108 L 42 107 L 43 106 L 43 105 L 44 104 L 44 102 L 38 108 L 38 109 L 36 111 L 36 112 L 34 114 L 34 115 L 33 116 L 33 118 L 32 119 L 32 121 L 31 122 L 31 126 L 29 128 L 26 125 L 26 124 L 25 123 L 25 117 L 26 116 L 26 114 L 27 113 L 27 112 L 28 111 L 28 109 L 29 108 L 29 107 L 32 104 L 32 103 L 38 97 L 38 96 L 37 96 L 36 97 L 35 97 L 33 99 L 32 99 L 28 103 L 28 104 L 26 106 L 26 107 L 25 108 L 25 110 L 24 111 L 24 112 L 23 113 L 22 112 L 22 105 L 23 104 L 23 102 L 24 101 L 24 100 L 25 99 L 25 98 L 32 91 L 33 91 L 35 89 L 36 89 L 37 88 L 38 88 L 39 87 L 40 87 L 41 86 L 42 86 L 43 85 L 44 85 L 45 84 L 46 84 L 48 82 L 49 82 L 50 81 L 51 81 L 53 79 L 54 79 L 55 78 L 56 78 L 60 74 L 61 74 L 70 65 L 70 64 L 74 60 L 74 59 L 77 56 L 77 55 L 79 53 L 79 52 L 81 50 L 81 49 L 83 47 L 83 46 L 84 45 L 84 44 L 86 42 L 86 41 L 87 40 L 87 39 L 88 38 L 88 37 L 89 36 L 89 35 L 90 34 L 90 33 L 92 31 L 92 30 L 93 29 L 93 27 L 94 26 L 94 25 L 95 24 L 95 23 L 96 22 L 96 20 L 97 19 L 97 18 Z" fill="none" stroke="black" stroke-width="1" /></svg>