<?xml version="1.0" encoding="utf-8" ?>
<svg baseProfile="full" height="251" version="1.1" width="193" xmlns="http://www.w3.org/2000/svg" xmlns:ev="http://www.w3.org/2001/xml-events" xmlns:xlink="http://www.w3.org/1999/xlink"><defs /><path d="M 122 212 L 122 214 L 123 215 L 131 215 L 132 214 L 132 212 Z" fill="none" stroke="black" stroke-width="1" /><path d="M 108 204 L 107 205 L 106 205 L 104 207 L 104 208 L 103 209 L 103 218 L 107 222 L 109 222 L 110 223 L 113 223 L 114 222 L 115 222 L 116 221 L 117 221 L 118 220 L 118 219 L 119 218 L 119 217 L 116 217 L 116 218 L 114 220 L 109 220 L 106 217 L 106 216 L 105 215 L 106 214 L 119 214 L 119 209 L 118 208 L 118 207 L 116 205 L 115 205 L 114 204 Z" fill="none" stroke="black" stroke-width="1" /><path d="M 84 204 L 84 229 L 86 229 L 86 222 L 87 221 L 88 222 L 89 222 L 90 223 L 93 223 L 94 222 L 95 222 L 98 219 L 98 218 L 99 217 L 99 209 L 98 208 L 98 207 L 95 204 L 89 204 L 87 206 L 86 205 L 86 204 Z" fill="none" stroke="black" stroke-width="1" /><path d="M 67 204 L 66 205 L 65 205 L 63 207 L 63 209 L 65 209 L 68 206 L 73 206 L 75 208 L 75 210 L 74 211 L 73 211 L 72 212 L 67 212 L 66 213 L 65 213 L 64 214 L 63 214 L 63 215 L 62 216 L 62 219 L 63 220 L 63 221 L 64 222 L 66 222 L 67 223 L 70 223 L 71 222 L 72 222 L 73 221 L 75 221 L 76 222 L 79 222 L 78 221 L 78 208 L 77 207 L 77 206 L 75 204 Z" fill="none" stroke="black" stroke-width="1" /><path d="M 158 197 L 158 198 L 157 199 L 157 203 L 156 204 L 156 209 L 155 210 L 158 210 L 159 209 L 160 209 L 161 208 L 165 208 L 168 211 L 168 217 L 165 220 L 164 220 L 163 221 L 162 220 L 160 220 L 158 218 L 158 216 L 155 216 L 155 218 L 156 219 L 156 220 L 157 221 L 158 221 L 159 222 L 160 222 L 161 223 L 164 223 L 165 222 L 167 222 L 170 219 L 170 218 L 171 217 L 171 210 L 167 206 L 160 206 L 159 205 L 159 202 L 161 200 L 170 200 L 170 197 Z" fill="none" stroke="black" stroke-width="1" /><path d="M 144 197 L 144 198 L 141 201 L 140 201 L 138 203 L 137 203 L 137 206 L 138 205 L 139 205 L 140 204 L 141 204 L 142 203 L 143 204 L 143 222 L 146 222 L 146 197 Z" fill="none" stroke="black" stroke-width="1" /><path d="M 44 197 L 44 222 L 46 222 L 46 211 L 47 210 L 47 208 L 48 207 L 49 207 L 50 206 L 53 206 L 55 208 L 55 209 L 56 210 L 56 222 L 58 222 L 58 207 L 57 206 L 57 205 L 56 205 L 55 204 L 49 204 L 47 206 L 46 205 L 46 197 Z" fill="none" stroke="black" stroke-width="1" /><path d="M 29 196 L 28 197 L 24 197 L 23 198 L 22 198 L 21 199 L 21 200 L 20 201 L 20 206 L 23 209 L 25 209 L 26 210 L 28 210 L 29 211 L 32 211 L 33 212 L 34 212 L 36 214 L 36 217 L 34 219 L 33 219 L 32 220 L 27 220 L 26 219 L 25 219 L 22 216 L 22 214 L 19 214 L 19 217 L 20 218 L 20 219 L 22 221 L 23 221 L 24 222 L 26 222 L 27 223 L 31 223 L 32 222 L 34 222 L 35 221 L 36 221 L 38 219 L 38 218 L 39 217 L 39 213 L 35 209 L 34 209 L 33 208 L 30 208 L 29 207 L 26 207 L 25 206 L 24 206 L 23 205 L 23 202 L 26 199 L 31 199 L 32 200 L 33 200 L 35 202 L 35 204 L 38 204 L 38 202 L 37 201 L 37 200 L 35 198 L 34 198 L 33 197 L 30 197 Z" fill="none" stroke="black" stroke-width="1" /><path d="M 87 146 L 87 148 L 95 148 L 95 146 Z" fill="none" stroke="black" stroke-width="1" /><path d="M 136 133 L 135 134 L 134 134 L 133 135 L 133 136 L 132 137 L 132 138 L 131 139 L 131 149 L 132 150 L 132 151 L 133 152 L 133 153 L 134 154 L 136 154 L 137 155 L 139 155 L 140 154 L 141 154 L 143 152 L 143 151 L 144 150 L 144 138 L 143 137 L 143 136 L 141 134 L 140 134 L 139 133 Z" fill="none" stroke="black" stroke-width="1" /><path d="M 119 133 L 118 134 L 117 134 L 116 135 L 116 136 L 115 137 L 115 138 L 114 139 L 114 149 L 115 150 L 115 151 L 116 152 L 116 153 L 117 154 L 119 154 L 120 155 L 122 155 L 123 154 L 124 154 L 126 152 L 126 151 L 127 150 L 127 138 L 126 137 L 126 136 L 124 134 L 123 134 L 122 133 Z" fill="none" stroke="black" stroke-width="1" /><path d="M 103 133 L 102 134 L 100 134 L 99 135 L 99 136 L 98 137 L 98 139 L 100 139 L 100 138 L 103 135 L 106 135 L 108 137 L 108 138 L 109 139 L 108 140 L 108 141 L 98 151 L 98 152 L 97 153 L 97 154 L 111 154 L 111 152 L 102 152 L 101 151 L 105 147 L 106 147 L 109 144 L 109 143 L 110 142 L 110 141 L 111 140 L 111 138 L 110 137 L 110 136 L 108 134 L 107 134 L 106 133 Z" fill="none" stroke="black" stroke-width="1" /><path d="M 67 133 L 67 136 L 68 137 L 68 138 L 69 139 L 69 141 L 70 142 L 70 143 L 71 144 L 71 146 L 72 147 L 72 148 L 73 149 L 73 151 L 74 152 L 74 154 L 77 154 L 78 153 L 78 151 L 79 150 L 79 149 L 80 148 L 80 146 L 81 145 L 81 144 L 82 143 L 82 141 L 83 140 L 83 139 L 84 138 L 84 136 L 85 135 L 85 133 L 83 133 L 83 134 L 82 135 L 82 137 L 81 138 L 81 139 L 80 140 L 80 142 L 79 143 L 79 145 L 78 146 L 78 147 L 77 148 L 77 150 L 76 151 L 75 150 L 75 149 L 74 148 L 74 146 L 73 145 L 73 143 L 72 142 L 72 141 L 71 140 L 71 138 L 70 137 L 70 135 L 69 134 L 69 133 Z" fill="none" stroke="black" stroke-width="1" /><path d="M 48 133 L 48 134 L 49 135 L 49 136 L 52 139 L 52 140 L 54 142 L 54 144 L 53 145 L 53 146 L 50 149 L 50 150 L 47 153 L 47 154 L 50 154 L 50 153 L 53 150 L 53 149 L 56 146 L 59 149 L 59 150 L 61 152 L 61 153 L 62 154 L 65 154 L 64 153 L 64 152 L 62 150 L 62 149 L 59 146 L 59 145 L 58 144 L 58 142 L 61 139 L 61 138 L 64 135 L 64 133 L 62 133 L 62 134 L 59 137 L 59 138 L 56 141 L 54 139 L 54 138 L 52 136 L 52 135 L 50 133 Z" fill="none" stroke="black" stroke-width="1" /><path d="M 108 19 L 107 20 L 105 20 L 104 21 L 103 21 L 102 22 L 101 22 L 100 23 L 99 23 L 94 28 L 94 29 L 93 30 L 93 31 L 92 32 L 92 33 L 91 34 L 91 37 L 90 38 L 90 45 L 91 46 L 91 48 L 92 49 L 92 51 L 93 52 L 93 53 L 100 60 L 101 60 L 102 61 L 103 61 L 105 63 L 105 66 L 104 67 L 104 70 L 103 71 L 103 74 L 102 75 L 102 77 L 101 78 L 101 81 L 100 82 L 100 85 L 99 86 L 99 89 L 98 90 L 98 92 L 97 93 L 97 96 L 96 97 L 96 100 L 95 101 L 94 101 L 93 100 L 92 100 L 91 99 L 90 99 L 89 98 L 88 98 L 87 97 L 86 97 L 85 96 L 84 96 L 83 95 L 82 95 L 81 94 L 80 94 L 79 93 L 78 93 L 77 92 L 76 92 L 75 91 L 74 91 L 73 90 L 72 90 L 71 89 L 70 89 L 69 88 L 68 88 L 67 87 L 66 87 L 65 86 L 64 86 L 63 85 L 62 85 L 61 84 L 60 84 L 59 83 L 58 83 L 57 82 L 56 82 L 55 81 L 53 81 L 52 82 L 52 124 L 53 125 L 54 125 L 55 124 L 56 124 L 57 123 L 58 123 L 59 122 L 60 122 L 61 121 L 62 121 L 63 120 L 64 120 L 65 119 L 66 119 L 67 118 L 68 118 L 69 117 L 70 117 L 71 116 L 72 116 L 73 115 L 74 115 L 75 114 L 76 114 L 77 113 L 78 113 L 79 112 L 80 112 L 81 111 L 82 111 L 83 110 L 84 110 L 85 109 L 86 109 L 87 108 L 88 108 L 89 107 L 90 107 L 91 106 L 92 106 L 93 105 L 94 105 L 95 104 L 97 104 L 98 105 L 99 105 L 100 106 L 101 106 L 102 107 L 103 107 L 104 108 L 105 108 L 106 109 L 107 109 L 108 110 L 109 110 L 110 111 L 111 111 L 112 112 L 113 112 L 114 113 L 115 113 L 116 114 L 117 114 L 118 115 L 119 115 L 120 116 L 121 116 L 122 117 L 123 117 L 124 118 L 125 118 L 126 119 L 127 119 L 128 120 L 129 120 L 130 121 L 131 121 L 132 122 L 133 122 L 134 123 L 135 123 L 136 124 L 137 124 L 138 125 L 139 124 L 139 81 L 137 81 L 136 82 L 135 82 L 134 83 L 133 83 L 132 84 L 131 84 L 130 85 L 129 85 L 128 86 L 127 86 L 126 87 L 125 87 L 124 88 L 123 88 L 122 89 L 121 89 L 120 90 L 119 90 L 118 91 L 117 91 L 116 92 L 115 92 L 114 93 L 113 93 L 112 94 L 111 94 L 110 95 L 109 95 L 108 96 L 107 96 L 106 97 L 105 97 L 104 98 L 103 98 L 102 99 L 101 99 L 100 100 L 99 100 L 98 99 L 98 96 L 99 95 L 99 93 L 100 92 L 100 89 L 101 88 L 101 85 L 102 84 L 102 81 L 103 80 L 103 78 L 104 77 L 104 74 L 105 73 L 105 70 L 106 69 L 106 66 L 107 65 L 107 64 L 108 63 L 118 63 L 119 62 L 121 62 L 122 61 L 123 61 L 125 59 L 126 59 L 130 55 L 130 54 L 132 52 L 132 51 L 133 50 L 133 48 L 134 47 L 134 35 L 133 34 L 133 33 L 132 32 L 132 31 L 131 30 L 131 29 L 128 26 L 128 25 L 127 25 L 124 22 L 123 22 L 122 21 L 121 21 L 120 20 L 117 20 L 116 19 Z" fill="none" stroke="black" stroke-width="1" /></svg>