<?xml version="1.0" encoding="utf-8" ?>
<svg baseProfile="full" height="251" version="1.1" width="192" xmlns="http://www.w3.org/2000/svg" xmlns:ev="http://www.w3.org/2001/xml-events" xmlns:xlink="http://www.w3.org/1999/xlink"><defs /><path d="M 122 212 L 122 214 L 123 215 L 130 215 L 131 214 L 131 212 Z" fill="none" stroke="black" stroke-width="1" /><path d="M 107 204 L 105 206 L 104 206 L 104 207 L 103 208 L 103 209 L 102 210 L 102 216 L 103 217 L 103 219 L 106 222 L 108 222 L 109 223 L 112 223 L 113 222 L 115 222 L 118 219 L 118 218 L 119 217 L 116 217 L 113 220 L 108 220 L 106 218 L 106 217 L 105 216 L 105 215 L 106 214 L 119 214 L 119 211 L 118 210 L 118 208 L 117 207 L 117 206 L 116 206 L 114 204 Z" fill="none" stroke="black" stroke-width="1" /><path d="M 83 204 L 83 229 L 86 229 L 86 222 L 87 221 L 88 222 L 89 222 L 90 223 L 92 223 L 93 222 L 95 222 L 97 220 L 97 219 L 98 218 L 98 217 L 99 216 L 99 210 L 98 209 L 98 208 L 97 207 L 97 206 L 96 205 L 95 205 L 94 204 L 88 204 L 87 205 L 86 205 L 85 204 Z" fill="none" stroke="black" stroke-width="1" /><path d="M 67 204 L 66 205 L 65 205 L 63 207 L 63 209 L 65 209 L 68 206 L 73 206 L 75 208 L 75 210 L 74 211 L 73 211 L 72 212 L 67 212 L 66 213 L 65 213 L 64 214 L 63 214 L 63 215 L 62 216 L 62 219 L 63 220 L 63 221 L 64 222 L 66 222 L 67 223 L 70 223 L 71 222 L 72 222 L 73 221 L 75 221 L 76 222 L 79 222 L 78 221 L 78 208 L 77 207 L 77 206 L 75 204 Z" fill="none" stroke="black" stroke-width="1" /><path d="M 160 197 L 159 198 L 158 198 L 156 200 L 156 201 L 155 202 L 155 205 L 154 206 L 154 215 L 155 216 L 155 218 L 159 222 L 160 222 L 161 223 L 164 223 L 165 222 L 167 222 L 169 220 L 169 219 L 170 218 L 170 217 L 171 216 L 171 213 L 170 212 L 170 210 L 166 206 L 161 206 L 160 207 L 159 207 L 158 208 L 157 207 L 157 204 L 158 203 L 158 202 L 161 199 L 164 199 L 165 200 L 166 200 L 167 201 L 167 203 L 170 203 L 170 201 L 169 200 L 169 199 L 168 198 L 167 198 L 166 197 Z" fill="none" stroke="black" stroke-width="1" /><path d="M 144 197 L 139 202 L 138 202 L 137 203 L 137 206 L 138 205 L 139 205 L 141 203 L 142 203 L 143 204 L 143 222 L 146 222 L 146 197 Z" fill="none" stroke="black" stroke-width="1" /><path d="M 43 197 L 43 222 L 46 222 L 46 209 L 49 206 L 53 206 L 55 208 L 55 222 L 58 222 L 58 208 L 57 207 L 57 206 L 55 204 L 49 204 L 48 205 L 47 205 L 46 204 L 46 197 Z" fill="none" stroke="black" stroke-width="1" /><path d="M 28 196 L 27 197 L 24 197 L 23 198 L 22 198 L 20 200 L 20 201 L 19 202 L 19 204 L 20 205 L 20 206 L 21 207 L 21 208 L 22 208 L 23 209 L 24 209 L 25 210 L 28 210 L 29 211 L 31 211 L 32 212 L 33 212 L 36 215 L 36 216 L 32 220 L 26 220 L 25 219 L 24 219 L 22 217 L 22 216 L 21 215 L 21 214 L 19 214 L 18 215 L 19 216 L 19 218 L 23 222 L 26 222 L 27 223 L 31 223 L 32 222 L 34 222 L 35 221 L 36 221 L 37 220 L 37 219 L 38 218 L 38 212 L 36 210 L 35 210 L 34 209 L 33 209 L 32 208 L 29 208 L 28 207 L 26 207 L 25 206 L 24 206 L 22 204 L 22 202 L 24 200 L 25 200 L 26 199 L 31 199 L 35 203 L 35 204 L 37 204 L 38 203 L 37 202 L 37 201 L 36 200 L 36 199 L 35 198 L 34 198 L 33 197 L 29 197 Z" fill="none" stroke="black" stroke-width="1" /><path d="M 87 148 L 87 150 L 94 150 L 94 148 Z" fill="none" stroke="black" stroke-width="1" /><path d="M 136 135 L 135 136 L 134 136 L 132 138 L 132 139 L 131 140 L 131 144 L 130 145 L 130 146 L 131 147 L 131 152 L 132 153 L 132 154 L 134 156 L 135 156 L 136 157 L 138 157 L 139 156 L 140 156 L 141 155 L 142 155 L 142 154 L 143 153 L 143 151 L 144 150 L 144 142 L 143 141 L 143 139 L 142 138 L 142 137 L 141 136 L 140 136 L 139 135 Z" fill="none" stroke="black" stroke-width="1" /><path d="M 119 135 L 118 136 L 117 136 L 115 138 L 115 139 L 114 140 L 114 144 L 113 145 L 113 146 L 114 147 L 114 152 L 115 153 L 115 154 L 117 156 L 118 156 L 119 157 L 121 157 L 122 156 L 123 156 L 124 155 L 125 155 L 125 154 L 126 153 L 126 151 L 127 150 L 127 142 L 126 141 L 126 139 L 125 138 L 125 137 L 124 136 L 123 136 L 122 135 Z" fill="none" stroke="black" stroke-width="1" /><path d="M 102 135 L 101 136 L 100 136 L 98 138 L 98 139 L 97 140 L 97 141 L 99 141 L 100 140 L 100 139 L 102 137 L 105 137 L 108 140 L 108 142 L 107 143 L 107 144 L 101 150 L 100 150 L 99 151 L 99 152 L 97 154 L 97 156 L 110 156 L 110 154 L 102 154 L 101 153 L 109 145 L 109 144 L 110 143 L 110 139 L 109 138 L 109 137 L 108 136 L 106 136 L 105 135 Z" fill="none" stroke="black" stroke-width="1" /><path d="M 66 135 L 66 136 L 67 137 L 67 139 L 68 140 L 68 141 L 69 142 L 69 144 L 70 145 L 70 147 L 71 148 L 71 149 L 72 150 L 72 152 L 73 153 L 73 154 L 74 155 L 74 156 L 77 156 L 77 155 L 78 154 L 78 152 L 79 151 L 79 150 L 80 149 L 80 147 L 81 146 L 81 144 L 82 143 L 82 142 L 83 141 L 83 139 L 84 138 L 84 137 L 85 136 L 85 135 L 83 135 L 82 136 L 82 137 L 81 138 L 81 140 L 80 141 L 80 143 L 79 144 L 79 145 L 78 146 L 78 148 L 77 149 L 77 151 L 75 153 L 74 152 L 74 150 L 73 149 L 73 147 L 72 146 L 72 144 L 71 143 L 71 141 L 70 140 L 70 139 L 69 138 L 69 136 L 68 135 Z" fill="none" stroke="black" stroke-width="1" /><path d="M 47 135 L 47 136 L 50 139 L 50 140 L 52 142 L 52 143 L 54 145 L 54 146 L 51 149 L 51 150 L 48 153 L 48 154 L 46 156 L 49 156 L 51 154 L 51 153 L 54 150 L 54 149 L 55 148 L 56 148 L 57 149 L 57 150 L 59 152 L 59 153 L 62 156 L 65 156 L 63 154 L 63 153 L 60 150 L 60 149 L 58 147 L 58 146 L 57 145 L 59 143 L 59 142 L 62 139 L 62 138 L 64 136 L 64 135 L 62 135 L 60 137 L 60 138 L 57 141 L 57 142 L 56 143 L 53 140 L 53 139 L 50 136 L 50 135 Z" fill="none" stroke="black" stroke-width="1" /><path d="M 91 19 L 90 20 L 88 20 L 87 21 L 85 21 L 83 23 L 82 23 L 77 28 L 77 29 L 76 30 L 76 31 L 75 32 L 75 33 L 74 34 L 74 36 L 73 37 L 73 45 L 74 46 L 74 49 L 75 50 L 75 51 L 76 52 L 76 53 L 83 60 L 84 60 L 85 61 L 86 61 L 87 62 L 89 62 L 90 63 L 93 63 L 94 64 L 94 102 L 93 103 L 92 102 L 91 102 L 90 101 L 89 101 L 88 100 L 87 100 L 86 99 L 85 99 L 84 98 L 83 98 L 82 97 L 81 97 L 80 96 L 79 96 L 78 95 L 77 95 L 76 94 L 75 94 L 74 93 L 73 93 L 72 92 L 71 92 L 70 91 L 69 91 L 68 90 L 67 90 L 66 89 L 65 89 L 64 88 L 63 88 L 62 87 L 61 87 L 60 86 L 59 86 L 58 85 L 57 85 L 56 84 L 55 84 L 54 83 L 52 83 L 52 127 L 54 127 L 55 126 L 56 126 L 57 125 L 58 125 L 59 124 L 60 124 L 61 123 L 62 123 L 63 122 L 64 122 L 65 121 L 66 121 L 67 120 L 68 120 L 69 119 L 70 119 L 71 118 L 72 118 L 73 117 L 74 117 L 75 116 L 76 116 L 77 115 L 78 115 L 79 114 L 80 114 L 81 113 L 82 113 L 83 112 L 84 112 L 85 111 L 86 111 L 87 110 L 88 110 L 89 109 L 90 109 L 91 108 L 92 108 L 93 107 L 94 107 L 95 106 L 96 106 L 97 107 L 98 107 L 99 108 L 100 108 L 101 109 L 102 109 L 103 110 L 104 110 L 105 111 L 106 111 L 107 112 L 108 112 L 109 113 L 110 113 L 111 114 L 112 114 L 113 115 L 114 115 L 115 116 L 116 116 L 117 117 L 118 117 L 119 118 L 120 118 L 121 119 L 122 119 L 123 120 L 124 120 L 125 121 L 126 121 L 127 122 L 128 122 L 129 123 L 130 123 L 131 124 L 132 124 L 133 125 L 134 125 L 135 126 L 136 126 L 137 127 L 138 127 L 139 126 L 139 84 L 138 83 L 137 83 L 136 84 L 135 84 L 134 85 L 133 85 L 132 86 L 131 86 L 130 87 L 129 87 L 128 88 L 127 88 L 126 89 L 125 89 L 124 90 L 123 90 L 122 91 L 121 91 L 120 92 L 119 92 L 118 93 L 117 93 L 116 94 L 115 94 L 114 95 L 113 95 L 112 96 L 111 96 L 110 97 L 109 97 L 108 98 L 107 98 L 106 99 L 105 99 L 104 100 L 103 100 L 102 101 L 101 101 L 100 102 L 99 102 L 98 103 L 97 103 L 96 102 L 96 64 L 97 63 L 101 63 L 102 62 L 103 62 L 104 61 L 106 61 L 108 59 L 109 59 L 113 55 L 113 54 L 114 53 L 114 52 L 115 51 L 115 50 L 116 49 L 116 48 L 117 47 L 117 36 L 116 35 L 116 33 L 115 32 L 115 31 L 114 30 L 114 29 L 107 22 L 106 22 L 105 21 L 104 21 L 103 20 L 100 20 L 99 19 Z" fill="none" stroke="black" stroke-width="1" /></svg>