<?xml version="1.0" encoding="utf-8" ?>
<svg baseProfile="full" height="497" version="1.1" width="767" xmlns="http://www.w3.org/2000/svg" xmlns:ev="http://www.w3.org/2001/xml-events" xmlns:xlink="http://www.w3.org/1999/xlink"><defs /><path d="M 296 375 L 295 376 L 294 376 L 293 377 L 292 377 L 289 380 L 289 383 L 288 384 L 289 385 L 289 389 L 293 393 L 294 393 L 295 394 L 495 394 L 496 393 L 497 393 L 500 390 L 500 389 L 501 388 L 501 381 L 500 380 L 500 379 L 498 377 L 497 377 L 496 376 L 495 376 L 494 375 Z" fill="none" stroke="black" stroke-width="1" /><path d="M 584 294 L 583 295 L 580 295 L 579 296 L 575 296 L 574 297 L 571 297 L 569 299 L 566 299 L 565 300 L 563 300 L 562 301 L 561 301 L 560 302 L 558 302 L 556 304 L 555 304 L 554 305 L 553 305 L 551 307 L 550 307 L 549 308 L 548 308 L 546 310 L 545 310 L 542 313 L 541 313 L 529 325 L 529 326 L 526 329 L 526 330 L 524 332 L 524 333 L 523 334 L 523 335 L 521 337 L 521 338 L 520 339 L 520 340 L 519 341 L 519 342 L 518 343 L 518 345 L 516 347 L 516 349 L 515 350 L 515 352 L 514 353 L 514 355 L 513 356 L 513 360 L 512 361 L 512 364 L 511 365 L 511 370 L 510 371 L 510 398 L 511 399 L 511 404 L 512 405 L 512 407 L 513 408 L 513 413 L 514 414 L 514 416 L 515 417 L 515 419 L 516 420 L 516 422 L 518 424 L 518 426 L 519 427 L 519 428 L 521 430 L 521 432 L 523 434 L 523 435 L 525 437 L 525 438 L 528 441 L 528 442 L 533 447 L 533 448 L 536 451 L 537 451 L 542 456 L 543 456 L 546 459 L 547 459 L 549 461 L 550 461 L 552 463 L 553 463 L 554 464 L 555 464 L 556 465 L 557 465 L 558 466 L 559 466 L 560 467 L 562 467 L 563 468 L 564 468 L 565 469 L 567 469 L 568 470 L 569 470 L 570 471 L 572 471 L 573 472 L 577 472 L 578 473 L 580 473 L 581 474 L 588 474 L 589 475 L 594 475 L 595 476 L 608 476 L 609 475 L 615 475 L 616 474 L 622 474 L 623 473 L 626 473 L 627 472 L 630 472 L 631 471 L 633 471 L 634 470 L 635 470 L 636 469 L 638 469 L 639 468 L 640 468 L 641 467 L 642 467 L 643 466 L 645 466 L 647 464 L 648 464 L 649 463 L 650 463 L 652 461 L 653 461 L 655 459 L 656 459 L 659 456 L 660 456 L 670 446 L 670 445 L 673 442 L 673 441 L 676 438 L 676 437 L 678 435 L 678 434 L 680 432 L 680 430 L 682 428 L 682 427 L 683 426 L 683 425 L 684 424 L 684 423 L 685 422 L 685 421 L 686 420 L 686 419 L 687 418 L 687 416 L 688 415 L 688 412 L 689 411 L 689 410 L 690 409 L 690 406 L 691 405 L 691 401 L 692 400 L 692 396 L 693 395 L 693 373 L 692 372 L 692 368 L 691 367 L 691 363 L 690 362 L 690 359 L 689 358 L 689 357 L 688 356 L 688 353 L 687 352 L 687 350 L 686 349 L 686 348 L 685 347 L 685 346 L 684 345 L 684 344 L 683 343 L 683 342 L 682 341 L 682 340 L 680 338 L 680 336 L 675 331 L 675 330 L 674 329 L 674 328 L 670 324 L 670 323 L 662 315 L 661 315 L 656 310 L 655 310 L 653 308 L 652 308 L 651 307 L 650 307 L 648 305 L 647 305 L 646 304 L 644 304 L 642 302 L 640 302 L 639 301 L 638 301 L 637 300 L 635 300 L 634 299 L 631 299 L 630 298 L 629 298 L 628 297 L 625 297 L 624 296 L 620 296 L 619 295 L 616 295 L 615 294 Z" fill="none" stroke="black" stroke-width="1" /><path d="M 169 294 L 168 295 L 165 295 L 164 296 L 160 296 L 159 297 L 156 297 L 155 298 L 154 298 L 153 299 L 151 299 L 150 300 L 148 300 L 147 301 L 146 301 L 145 302 L 143 302 L 141 304 L 140 304 L 139 305 L 138 305 L 136 307 L 135 307 L 134 308 L 133 308 L 131 310 L 130 310 L 127 313 L 126 313 L 113 326 L 113 327 L 112 328 L 112 329 L 109 332 L 109 333 L 107 335 L 107 336 L 106 337 L 106 338 L 105 339 L 105 340 L 104 341 L 104 342 L 103 343 L 103 344 L 102 345 L 102 347 L 101 348 L 101 349 L 100 350 L 100 352 L 99 353 L 99 356 L 98 357 L 98 359 L 97 360 L 97 365 L 96 366 L 96 371 L 95 372 L 95 397 L 96 398 L 96 403 L 97 404 L 97 409 L 98 410 L 98 412 L 99 413 L 99 416 L 100 417 L 100 419 L 101 420 L 101 421 L 102 422 L 102 424 L 104 426 L 104 428 L 105 429 L 105 430 L 107 432 L 107 433 L 108 434 L 108 435 L 110 437 L 110 438 L 112 440 L 112 441 L 118 447 L 118 448 L 119 448 L 120 449 L 120 450 L 121 451 L 122 451 L 123 452 L 123 453 L 124 453 L 127 456 L 128 456 L 131 459 L 132 459 L 134 461 L 135 461 L 137 463 L 138 463 L 139 464 L 140 464 L 141 465 L 142 465 L 143 466 L 145 466 L 146 467 L 147 467 L 148 468 L 149 468 L 150 469 L 152 469 L 153 470 L 154 470 L 155 471 L 157 471 L 158 472 L 161 472 L 162 473 L 165 473 L 166 474 L 173 474 L 174 475 L 179 475 L 180 476 L 193 476 L 194 475 L 200 475 L 201 474 L 207 474 L 208 473 L 211 473 L 212 472 L 215 472 L 216 471 L 218 471 L 219 470 L 220 470 L 221 469 L 223 469 L 224 468 L 225 468 L 226 467 L 227 467 L 228 466 L 230 466 L 232 464 L 233 464 L 234 463 L 235 463 L 237 461 L 238 461 L 240 459 L 241 459 L 244 456 L 245 456 L 255 446 L 255 445 L 258 442 L 258 441 L 261 438 L 261 437 L 263 435 L 263 434 L 264 433 L 264 432 L 266 430 L 266 429 L 267 428 L 267 427 L 268 426 L 268 425 L 269 424 L 269 423 L 270 422 L 270 421 L 271 420 L 271 418 L 272 417 L 272 415 L 273 414 L 273 413 L 274 412 L 274 410 L 275 409 L 275 406 L 276 405 L 276 402 L 277 401 L 277 393 L 278 392 L 278 377 L 277 376 L 277 367 L 276 366 L 276 363 L 275 362 L 275 359 L 274 358 L 274 356 L 273 355 L 273 354 L 272 353 L 272 351 L 271 350 L 271 348 L 270 347 L 270 346 L 269 345 L 269 344 L 268 343 L 268 342 L 267 341 L 267 340 L 266 339 L 266 338 L 264 336 L 264 335 L 263 334 L 263 333 L 261 331 L 261 330 L 256 325 L 256 324 L 247 315 L 246 315 L 243 312 L 242 312 L 238 308 L 237 308 L 236 307 L 235 307 L 233 305 L 232 305 L 231 304 L 229 304 L 227 302 L 225 302 L 224 301 L 223 301 L 222 300 L 220 300 L 219 299 L 216 299 L 215 298 L 214 298 L 213 297 L 210 297 L 209 296 L 205 296 L 204 295 L 201 295 L 200 294 Z" fill="none" stroke="black" stroke-width="1" /><path d="M 314 61 L 313 62 L 310 62 L 309 63 L 308 63 L 306 65 L 305 65 L 300 70 L 300 72 L 299 73 L 299 74 L 298 75 L 298 76 L 297 77 L 297 180 L 298 181 L 298 184 L 299 185 L 299 186 L 300 187 L 300 189 L 303 192 L 303 193 L 304 193 L 307 196 L 308 196 L 309 197 L 310 197 L 311 198 L 316 198 L 317 199 L 417 199 L 418 200 L 466 200 L 467 199 L 475 199 L 476 198 L 484 198 L 485 199 L 490 199 L 491 198 L 497 198 L 498 197 L 499 197 L 500 196 L 501 196 L 502 195 L 503 195 L 508 190 L 508 189 L 510 187 L 510 186 L 511 185 L 511 181 L 512 180 L 512 177 L 513 176 L 513 171 L 512 170 L 512 167 L 511 166 L 511 160 L 510 159 L 510 157 L 509 156 L 509 155 L 508 154 L 508 152 L 506 150 L 506 149 L 504 147 L 504 146 L 500 142 L 499 142 L 497 140 L 496 140 L 494 138 L 493 138 L 492 137 L 490 137 L 489 136 L 488 136 L 487 135 L 483 135 L 482 134 L 482 133 L 481 132 L 481 131 L 480 130 L 480 128 L 479 127 L 479 125 L 478 124 L 478 123 L 477 122 L 477 120 L 476 119 L 476 118 L 475 117 L 475 115 L 474 114 L 474 113 L 473 112 L 473 111 L 472 110 L 472 109 L 471 108 L 471 107 L 470 106 L 470 105 L 469 104 L 469 103 L 468 102 L 468 101 L 467 100 L 467 99 L 465 97 L 465 96 L 463 94 L 463 93 L 461 91 L 461 90 L 449 78 L 448 78 L 445 75 L 444 75 L 443 74 L 442 74 L 441 73 L 440 73 L 439 72 L 438 72 L 437 71 L 436 71 L 435 70 L 433 70 L 432 69 L 430 69 L 429 68 L 426 68 L 425 67 L 418 67 L 417 66 L 412 66 L 411 65 L 400 65 L 399 64 L 389 64 L 388 63 L 378 63 L 377 62 L 354 62 L 353 61 Z" fill="none" stroke="black" stroke-width="1" /><path d="M 179 59 L 178 60 L 152 60 L 151 61 L 144 61 L 143 62 L 135 62 L 134 63 L 132 63 L 131 64 L 130 64 L 129 65 L 127 65 L 125 67 L 124 67 L 122 69 L 121 69 L 110 80 L 110 81 L 107 84 L 107 85 L 105 87 L 105 88 L 104 89 L 104 90 L 102 92 L 102 94 L 100 96 L 100 97 L 99 98 L 99 99 L 98 100 L 98 101 L 97 102 L 97 104 L 96 105 L 96 106 L 95 107 L 95 108 L 94 109 L 94 111 L 92 113 L 92 115 L 91 116 L 91 118 L 90 119 L 90 121 L 89 122 L 89 125 L 88 126 L 88 127 L 87 128 L 87 131 L 86 132 L 86 135 L 85 136 L 85 138 L 84 139 L 84 143 L 83 144 L 83 147 L 82 148 L 82 154 L 81 155 L 81 172 L 82 173 L 82 175 L 83 176 L 83 177 L 84 178 L 84 179 L 85 180 L 85 181 L 87 183 L 87 184 L 95 192 L 96 192 L 97 193 L 98 193 L 100 195 L 101 195 L 102 196 L 104 196 L 105 197 L 107 197 L 108 198 L 122 198 L 123 199 L 146 199 L 147 200 L 256 200 L 257 199 L 262 199 L 263 198 L 266 198 L 267 197 L 268 197 L 275 190 L 275 189 L 276 188 L 276 187 L 277 186 L 277 181 L 278 180 L 278 168 L 277 167 L 277 164 L 278 163 L 278 162 L 277 161 L 277 157 L 278 156 L 277 155 L 277 152 L 278 151 L 278 77 L 277 76 L 277 73 L 276 72 L 276 71 L 275 70 L 275 69 L 269 63 L 268 63 L 267 62 L 265 62 L 264 61 L 263 61 L 262 60 L 234 60 L 233 59 Z" fill="none" stroke="black" stroke-width="1" /><path d="M 228 18 L 227 19 L 174 19 L 173 20 L 144 20 L 143 21 L 131 21 L 130 22 L 126 22 L 125 23 L 119 23 L 118 24 L 115 24 L 114 25 L 111 25 L 110 26 L 108 26 L 107 27 L 106 27 L 105 28 L 103 28 L 102 29 L 101 29 L 100 30 L 99 30 L 98 31 L 97 31 L 96 32 L 95 32 L 94 33 L 93 33 L 92 34 L 91 34 L 89 36 L 88 36 L 85 39 L 84 39 L 78 45 L 78 46 L 74 50 L 74 51 L 73 52 L 73 53 L 71 55 L 71 56 L 69 58 L 69 59 L 68 60 L 68 61 L 66 63 L 66 64 L 65 65 L 65 66 L 63 68 L 63 70 L 61 72 L 61 74 L 60 75 L 60 76 L 58 78 L 58 80 L 57 81 L 57 82 L 56 83 L 56 84 L 55 85 L 55 87 L 54 88 L 54 89 L 53 90 L 53 91 L 52 92 L 52 93 L 51 94 L 51 95 L 50 96 L 50 98 L 49 99 L 49 100 L 48 101 L 48 103 L 47 104 L 47 106 L 46 107 L 46 108 L 45 109 L 45 111 L 44 112 L 44 114 L 43 115 L 43 116 L 42 117 L 42 120 L 41 121 L 41 122 L 40 123 L 40 125 L 39 126 L 39 129 L 38 130 L 38 131 L 37 132 L 37 134 L 36 135 L 36 137 L 35 138 L 35 140 L 34 141 L 34 144 L 33 145 L 33 147 L 32 148 L 32 151 L 31 152 L 31 154 L 30 155 L 30 157 L 29 158 L 29 162 L 28 163 L 28 165 L 27 166 L 27 170 L 26 171 L 26 174 L 25 175 L 25 178 L 24 179 L 24 184 L 23 185 L 23 187 L 22 188 L 22 193 L 21 194 L 21 201 L 20 202 L 20 209 L 19 210 L 19 294 L 20 295 L 20 305 L 21 306 L 21 317 L 22 318 L 22 324 L 23 325 L 23 329 L 24 330 L 24 336 L 25 337 L 25 339 L 26 340 L 26 344 L 27 345 L 27 348 L 28 349 L 28 351 L 29 352 L 29 355 L 30 356 L 30 357 L 31 358 L 31 359 L 32 360 L 32 362 L 33 363 L 33 364 L 34 365 L 34 367 L 35 368 L 35 369 L 37 371 L 37 372 L 38 373 L 38 374 L 40 376 L 40 377 L 43 380 L 43 381 L 48 386 L 49 386 L 52 389 L 53 389 L 55 391 L 56 391 L 57 392 L 58 392 L 59 393 L 61 393 L 62 394 L 64 394 L 65 395 L 69 395 L 70 396 L 77 396 L 78 395 L 79 395 L 80 394 L 81 394 L 82 393 L 82 392 L 84 390 L 84 383 L 82 381 L 82 380 L 81 379 L 80 379 L 79 378 L 78 378 L 77 377 L 70 377 L 69 376 L 68 376 L 67 375 L 66 375 L 65 374 L 64 374 L 62 372 L 61 372 L 60 371 L 60 370 L 59 370 L 58 369 L 58 368 L 55 365 L 55 364 L 53 362 L 53 361 L 52 360 L 52 359 L 51 358 L 51 357 L 50 356 L 50 354 L 48 352 L 48 349 L 47 348 L 47 347 L 46 346 L 46 343 L 45 342 L 45 339 L 44 338 L 44 335 L 43 334 L 43 329 L 42 328 L 42 323 L 41 322 L 41 318 L 40 317 L 40 306 L 39 305 L 39 297 L 38 296 L 38 295 L 39 294 L 40 294 L 41 293 L 42 293 L 43 292 L 46 292 L 47 291 L 49 291 L 50 290 L 51 290 L 52 289 L 53 289 L 55 287 L 56 287 L 63 280 L 63 279 L 65 277 L 65 276 L 66 275 L 66 274 L 67 273 L 67 272 L 68 271 L 68 270 L 69 269 L 69 266 L 70 265 L 70 263 L 71 262 L 71 255 L 72 254 L 72 237 L 71 236 L 71 231 L 70 230 L 70 229 L 69 228 L 69 226 L 67 224 L 67 223 L 64 220 L 64 219 L 63 218 L 62 218 L 60 216 L 59 216 L 57 214 L 55 214 L 54 213 L 52 213 L 51 212 L 49 212 L 48 211 L 39 211 L 38 210 L 38 207 L 39 206 L 39 202 L 40 201 L 40 194 L 41 193 L 41 190 L 42 189 L 42 185 L 43 184 L 43 180 L 44 179 L 44 176 L 45 175 L 45 171 L 46 170 L 46 167 L 47 166 L 47 165 L 48 164 L 48 160 L 49 159 L 49 158 L 50 157 L 50 151 L 51 150 L 51 149 L 52 148 L 52 147 L 53 146 L 53 143 L 54 142 L 54 141 L 55 140 L 55 138 L 56 137 L 56 134 L 57 133 L 57 132 L 58 131 L 58 129 L 59 128 L 59 126 L 60 125 L 60 123 L 61 122 L 61 120 L 62 119 L 62 118 L 63 117 L 63 115 L 64 114 L 64 112 L 65 111 L 65 110 L 66 109 L 66 107 L 67 106 L 67 105 L 68 104 L 68 103 L 69 102 L 69 100 L 70 99 L 70 98 L 71 97 L 71 95 L 72 94 L 72 93 L 73 92 L 73 91 L 74 90 L 74 88 L 76 86 L 76 85 L 77 84 L 77 82 L 79 80 L 79 78 L 81 76 L 81 74 L 82 73 L 82 72 L 84 70 L 84 69 L 86 67 L 86 66 L 87 65 L 87 64 L 90 61 L 90 60 L 98 52 L 99 52 L 101 50 L 102 50 L 103 49 L 104 49 L 106 47 L 108 47 L 109 46 L 110 46 L 111 45 L 112 45 L 113 44 L 116 44 L 117 43 L 118 43 L 119 42 L 125 42 L 126 41 L 130 41 L 131 40 L 140 40 L 141 39 L 169 39 L 170 38 L 191 38 L 192 37 L 284 37 L 285 38 L 306 38 L 307 39 L 337 39 L 338 40 L 355 40 L 356 41 L 367 41 L 368 42 L 384 42 L 385 43 L 392 43 L 393 44 L 403 44 L 404 45 L 412 45 L 413 46 L 416 46 L 417 47 L 425 47 L 426 48 L 430 48 L 431 49 L 435 49 L 436 50 L 441 50 L 442 51 L 444 51 L 445 52 L 448 52 L 449 53 L 450 53 L 451 54 L 452 54 L 453 55 L 455 55 L 457 57 L 458 57 L 459 58 L 460 58 L 462 60 L 463 60 L 465 62 L 466 62 L 469 65 L 470 65 L 471 66 L 471 67 L 472 68 L 473 68 L 474 69 L 474 70 L 475 70 L 477 72 L 477 73 L 478 73 L 479 74 L 479 75 L 482 78 L 482 79 L 485 82 L 485 83 L 487 85 L 487 86 L 490 89 L 490 90 L 492 92 L 492 93 L 493 94 L 493 95 L 494 96 L 494 97 L 495 98 L 495 99 L 497 101 L 497 102 L 498 103 L 498 104 L 499 105 L 499 106 L 500 107 L 500 109 L 501 110 L 501 111 L 502 112 L 502 113 L 503 114 L 503 115 L 504 116 L 504 117 L 505 118 L 505 120 L 506 121 L 506 122 L 507 123 L 507 125 L 508 126 L 508 128 L 509 129 L 509 130 L 510 131 L 510 133 L 511 134 L 511 136 L 512 137 L 512 138 L 513 139 L 513 143 L 514 144 L 514 145 L 515 146 L 515 149 L 516 150 L 516 153 L 517 154 L 517 155 L 518 156 L 518 160 L 519 161 L 519 164 L 520 165 L 520 168 L 521 169 L 521 174 L 522 175 L 522 177 L 523 178 L 523 184 L 524 185 L 524 189 L 526 191 L 526 192 L 529 195 L 530 195 L 531 196 L 547 196 L 548 197 L 562 197 L 563 198 L 582 198 L 583 199 L 590 199 L 591 200 L 602 200 L 603 201 L 615 201 L 616 202 L 621 202 L 622 203 L 632 203 L 633 204 L 640 204 L 641 205 L 647 205 L 648 206 L 656 206 L 657 207 L 660 207 L 661 208 L 667 208 L 668 209 L 673 209 L 674 210 L 677 210 L 678 211 L 683 211 L 684 212 L 687 212 L 688 213 L 691 213 L 692 214 L 695 214 L 696 215 L 697 215 L 698 216 L 699 216 L 700 217 L 701 217 L 703 219 L 704 219 L 710 225 L 709 226 L 708 226 L 707 227 L 706 227 L 704 229 L 703 229 L 693 239 L 693 240 L 691 242 L 691 243 L 690 244 L 690 245 L 689 246 L 689 247 L 688 248 L 688 249 L 687 250 L 687 253 L 686 254 L 686 255 L 685 256 L 685 260 L 684 261 L 684 274 L 685 275 L 685 279 L 687 281 L 687 283 L 688 284 L 688 285 L 689 286 L 689 287 L 690 288 L 690 289 L 692 291 L 692 292 L 701 301 L 702 301 L 704 303 L 705 303 L 706 304 L 707 304 L 708 305 L 710 305 L 712 307 L 715 307 L 716 308 L 721 308 L 722 309 L 725 309 L 726 310 L 726 335 L 725 336 L 725 345 L 724 346 L 724 357 L 723 358 L 723 363 L 722 364 L 722 366 L 721 367 L 721 370 L 720 371 L 720 372 L 719 373 L 719 374 L 714 379 L 711 379 L 710 380 L 708 380 L 705 383 L 705 384 L 703 386 L 703 392 L 704 393 L 704 394 L 707 397 L 708 397 L 709 398 L 716 398 L 717 397 L 719 397 L 720 396 L 722 396 L 723 395 L 724 395 L 725 394 L 726 394 L 733 387 L 733 386 L 735 384 L 735 383 L 736 382 L 736 381 L 737 380 L 737 378 L 738 377 L 738 376 L 739 375 L 739 373 L 740 372 L 740 368 L 741 367 L 741 365 L 742 364 L 742 355 L 743 354 L 743 346 L 744 345 L 744 335 L 745 334 L 745 305 L 746 304 L 746 299 L 745 298 L 745 274 L 744 273 L 744 266 L 743 265 L 743 260 L 742 259 L 742 253 L 741 252 L 741 250 L 740 249 L 740 245 L 739 244 L 739 242 L 738 241 L 738 240 L 737 239 L 737 236 L 736 235 L 736 234 L 735 233 L 735 231 L 734 230 L 734 228 L 732 226 L 732 224 L 730 222 L 730 221 L 729 220 L 729 219 L 727 217 L 727 216 L 724 213 L 724 212 L 717 205 L 716 205 L 714 203 L 713 203 L 711 201 L 710 201 L 709 200 L 708 200 L 706 198 L 704 198 L 703 197 L 701 197 L 700 196 L 698 196 L 697 195 L 693 195 L 692 194 L 689 194 L 688 193 L 684 193 L 683 192 L 678 192 L 677 191 L 675 191 L 674 190 L 668 190 L 667 189 L 662 189 L 661 188 L 656 188 L 655 187 L 646 187 L 645 186 L 642 186 L 641 185 L 632 185 L 631 184 L 622 184 L 621 183 L 616 183 L 615 182 L 602 182 L 601 181 L 591 181 L 590 180 L 577 180 L 576 179 L 557 179 L 556 178 L 547 178 L 546 177 L 542 177 L 541 176 L 541 174 L 540 173 L 540 169 L 539 168 L 539 163 L 538 162 L 538 160 L 537 159 L 537 155 L 536 154 L 536 152 L 535 151 L 535 148 L 534 147 L 534 144 L 533 143 L 533 142 L 532 141 L 532 138 L 531 137 L 531 134 L 530 133 L 530 132 L 529 131 L 529 128 L 528 127 L 528 126 L 527 125 L 527 123 L 526 122 L 526 120 L 525 119 L 525 118 L 524 117 L 524 115 L 523 114 L 523 113 L 522 112 L 522 111 L 521 110 L 521 108 L 520 107 L 520 106 L 519 105 L 519 104 L 518 103 L 518 101 L 516 99 L 516 97 L 514 95 L 514 93 L 513 92 L 513 91 L 511 89 L 511 88 L 510 87 L 510 86 L 508 84 L 508 83 L 507 82 L 507 81 L 505 79 L 505 78 L 503 76 L 503 75 L 501 73 L 501 72 L 498 69 L 498 68 L 495 65 L 495 64 L 480 49 L 479 49 L 476 46 L 475 46 L 473 44 L 472 44 L 470 42 L 469 42 L 468 41 L 467 41 L 465 39 L 463 39 L 462 38 L 461 38 L 459 36 L 456 36 L 455 35 L 454 35 L 453 34 L 451 34 L 450 33 L 446 33 L 445 32 L 442 32 L 441 31 L 436 31 L 435 30 L 432 30 L 431 29 L 426 29 L 425 28 L 417 28 L 416 27 L 412 27 L 411 26 L 402 26 L 401 25 L 392 25 L 391 24 L 381 24 L 380 23 L 363 23 L 362 22 L 355 22 L 354 21 L 333 21 L 332 20 L 301 20 L 300 19 L 246 19 L 245 18 Z" fill="none" stroke="black" stroke-width="1" /></svg>