<?xml version="1.0" encoding="utf-8" ?>
<svg baseProfile="full" height="327" version="1.1" width="158" xmlns="http://www.w3.org/2000/svg" xmlns:ev="http://www.w3.org/2001/xml-events" xmlns:xlink="http://www.w3.org/1999/xlink"><defs /><path d="M 79 297 L 79 299 L 86 299 L 86 297 Z" fill="none" stroke="black" stroke-width="1" /><path d="M 128 284 L 127 285 L 126 285 L 124 287 L 124 288 L 123 289 L 123 293 L 122 294 L 122 295 L 123 296 L 123 301 L 124 302 L 124 303 L 126 305 L 127 305 L 128 306 L 130 306 L 131 305 L 132 305 L 133 304 L 134 304 L 134 303 L 135 302 L 135 300 L 136 299 L 136 290 L 135 289 L 135 288 L 134 287 L 134 286 L 133 285 L 132 285 L 131 284 Z" fill="none" stroke="black" stroke-width="1" /><path d="M 111 284 L 110 285 L 109 285 L 107 287 L 107 288 L 106 289 L 106 293 L 105 294 L 105 295 L 106 296 L 106 301 L 107 302 L 107 303 L 109 305 L 110 305 L 111 306 L 113 306 L 114 305 L 115 305 L 116 304 L 117 304 L 117 303 L 118 302 L 118 300 L 119 299 L 119 290 L 118 289 L 118 288 L 117 287 L 117 286 L 116 285 L 115 285 L 114 284 Z" fill="none" stroke="black" stroke-width="1" /><path d="M 94 284 L 93 285 L 92 285 L 90 287 L 90 288 L 89 289 L 90 289 L 91 290 L 92 289 L 92 288 L 94 286 L 97 286 L 99 288 L 99 291 L 97 293 L 95 293 L 94 294 L 94 295 L 98 295 L 100 297 L 100 301 L 97 304 L 94 304 L 92 302 L 92 301 L 91 300 L 89 300 L 89 301 L 90 302 L 90 303 L 92 305 L 94 305 L 95 306 L 97 306 L 98 305 L 99 305 L 102 302 L 102 300 L 103 299 L 102 298 L 102 296 L 101 295 L 100 295 L 99 294 L 101 292 L 101 287 L 99 285 L 98 285 L 97 284 Z" fill="none" stroke="black" stroke-width="1" /><path d="M 59 284 L 59 285 L 62 288 L 62 289 L 64 291 L 64 292 L 66 294 L 66 295 L 63 298 L 63 299 L 60 302 L 60 303 L 58 305 L 61 305 L 63 303 L 63 302 L 66 299 L 66 298 L 67 297 L 68 297 L 69 298 L 69 299 L 71 301 L 71 302 L 74 305 L 77 305 L 75 303 L 75 302 L 72 299 L 72 298 L 70 296 L 70 295 L 69 294 L 71 292 L 71 291 L 74 288 L 74 287 L 76 285 L 76 284 L 74 284 L 72 286 L 72 287 L 69 290 L 69 291 L 68 292 L 65 289 L 65 288 L 62 285 L 62 284 Z" fill="none" stroke="black" stroke-width="1" /><path d="M 40 284 L 40 305 L 56 305 L 56 304 L 55 303 L 43 303 L 42 302 L 42 297 L 44 295 L 54 295 L 54 293 L 43 293 L 42 292 L 42 288 L 44 286 L 55 286 L 55 284 Z" fill="none" stroke="black" stroke-width="1" /><path d="M 19 284 L 19 305 L 21 305 L 21 296 L 22 295 L 32 295 L 33 296 L 33 305 L 35 305 L 35 284 L 33 284 L 33 292 L 32 293 L 22 293 L 21 292 L 21 284 Z" fill="none" stroke="black" stroke-width="1" /><path d="M 33 19 L 33 275 L 34 276 L 119 276 L 120 275 L 120 20 L 119 19 Z" fill="none" stroke="black" stroke-width="1" /></svg>