<?xml version="1.0" encoding="utf-8" ?>
<svg baseProfile="full" height="622" version="1.1" width="619" xmlns="http://www.w3.org/2000/svg" xmlns:ev="http://www.w3.org/2001/xml-events" xmlns:xlink="http://www.w3.org/1999/xlink"><defs /><path d="M 244 18 L 243 19 L 236 19 L 235 20 L 231 20 L 230 21 L 226 21 L 225 22 L 223 22 L 222 23 L 220 23 L 219 24 L 217 24 L 216 25 L 214 25 L 213 26 L 211 26 L 210 27 L 209 27 L 208 28 L 206 28 L 205 29 L 204 29 L 203 30 L 202 30 L 200 32 L 199 32 L 198 33 L 197 33 L 196 34 L 195 34 L 194 35 L 193 35 L 191 37 L 190 37 L 187 40 L 186 40 L 184 42 L 183 42 L 178 47 L 177 47 L 166 58 L 166 59 L 159 66 L 159 67 L 155 71 L 155 72 L 153 74 L 153 75 L 150 78 L 150 79 L 148 81 L 148 82 L 146 84 L 146 85 L 144 87 L 144 88 L 143 89 L 143 90 L 141 92 L 141 93 L 140 94 L 140 95 L 139 96 L 139 97 L 137 99 L 137 100 L 136 101 L 136 102 L 135 103 L 135 104 L 134 105 L 134 106 L 133 107 L 133 108 L 132 109 L 132 111 L 131 112 L 131 113 L 130 114 L 130 115 L 129 116 L 129 117 L 128 118 L 128 120 L 127 121 L 127 122 L 126 123 L 126 125 L 125 126 L 125 128 L 124 129 L 124 130 L 123 131 L 123 133 L 122 134 L 122 136 L 121 137 L 121 139 L 120 140 L 120 143 L 119 144 L 119 146 L 118 147 L 118 150 L 117 151 L 117 153 L 116 154 L 116 157 L 115 158 L 115 162 L 114 163 L 114 166 L 113 167 L 113 172 L 112 173 L 112 178 L 111 179 L 111 184 L 110 185 L 110 196 L 109 197 L 109 207 L 108 208 L 107 207 L 105 207 L 104 206 L 103 206 L 102 205 L 100 205 L 99 204 L 98 204 L 97 203 L 96 203 L 94 201 L 93 201 L 92 200 L 91 200 L 89 198 L 88 198 L 80 190 L 80 189 L 78 187 L 78 184 L 77 183 L 77 173 L 76 172 L 76 170 L 75 169 L 75 168 L 74 167 L 73 167 L 72 166 L 67 166 L 66 167 L 65 167 L 61 171 L 58 168 L 58 167 L 57 166 L 57 165 L 53 161 L 53 160 L 51 158 L 50 158 L 49 157 L 48 157 L 47 156 L 46 156 L 45 157 L 43 157 L 42 158 L 42 159 L 41 160 L 41 161 L 40 162 L 40 165 L 39 166 L 38 165 L 32 165 L 28 169 L 28 171 L 27 172 L 27 177 L 26 178 L 25 178 L 20 183 L 20 184 L 19 185 L 19 193 L 20 194 L 20 197 L 21 198 L 21 199 L 22 200 L 22 201 L 24 203 L 24 204 L 25 205 L 25 207 L 26 208 L 26 211 L 27 212 L 27 214 L 28 215 L 28 216 L 29 217 L 29 218 L 30 219 L 30 220 L 31 221 L 31 222 L 33 224 L 33 225 L 35 227 L 35 228 L 38 231 L 38 232 L 42 236 L 42 237 L 49 244 L 49 245 L 62 258 L 63 258 L 73 268 L 74 268 L 78 272 L 79 272 L 83 276 L 84 276 L 88 280 L 89 280 L 92 283 L 93 283 L 95 285 L 96 285 L 99 288 L 100 288 L 103 291 L 104 291 L 106 293 L 107 293 L 109 295 L 110 295 L 112 297 L 113 297 L 115 299 L 116 299 L 118 301 L 119 301 L 120 302 L 121 302 L 123 304 L 124 304 L 126 306 L 127 306 L 128 307 L 129 307 L 130 308 L 131 308 L 132 309 L 133 309 L 134 310 L 135 310 L 137 312 L 138 312 L 139 313 L 140 313 L 142 315 L 142 332 L 143 333 L 143 344 L 144 345 L 144 353 L 145 354 L 145 360 L 146 361 L 146 366 L 147 367 L 147 371 L 148 372 L 148 376 L 149 377 L 149 380 L 150 381 L 150 385 L 151 386 L 151 389 L 152 390 L 152 393 L 153 394 L 153 397 L 154 398 L 154 400 L 155 401 L 155 404 L 156 405 L 156 407 L 157 408 L 157 410 L 158 411 L 158 413 L 159 414 L 159 416 L 160 417 L 160 419 L 161 420 L 161 422 L 162 423 L 162 424 L 163 425 L 163 427 L 164 428 L 164 429 L 165 430 L 165 432 L 166 433 L 166 434 L 167 435 L 167 437 L 168 438 L 168 439 L 169 440 L 169 442 L 170 443 L 170 444 L 171 445 L 171 446 L 172 447 L 172 448 L 173 449 L 173 450 L 174 451 L 174 452 L 175 453 L 175 454 L 176 455 L 176 456 L 177 457 L 177 458 L 178 459 L 178 460 L 179 461 L 179 462 L 180 463 L 180 464 L 181 465 L 181 466 L 182 467 L 182 468 L 183 469 L 183 470 L 185 472 L 185 473 L 186 474 L 186 475 L 188 477 L 188 478 L 189 479 L 189 480 L 191 482 L 191 483 L 192 484 L 192 485 L 195 488 L 195 489 L 196 490 L 196 491 L 199 494 L 199 495 L 202 498 L 202 499 L 204 501 L 204 502 L 207 505 L 207 506 L 211 510 L 211 511 L 215 515 L 215 516 L 216 516 L 217 517 L 217 518 L 224 525 L 224 526 L 235 537 L 236 537 L 244 545 L 245 545 L 250 550 L 251 550 L 254 553 L 255 553 L 257 555 L 258 555 L 261 558 L 262 558 L 264 560 L 265 560 L 266 561 L 267 561 L 269 563 L 270 563 L 272 565 L 273 565 L 274 566 L 275 566 L 276 567 L 277 567 L 279 569 L 280 569 L 281 570 L 282 570 L 283 571 L 285 571 L 286 572 L 287 572 L 288 573 L 289 573 L 290 574 L 291 574 L 292 575 L 293 575 L 294 576 L 295 576 L 296 577 L 298 577 L 299 578 L 301 578 L 302 579 L 304 579 L 305 580 L 307 580 L 308 581 L 309 581 L 310 582 L 313 582 L 314 583 L 316 583 L 317 584 L 320 584 L 321 585 L 325 585 L 326 586 L 332 586 L 333 587 L 340 587 L 341 588 L 372 588 L 373 587 L 380 587 L 381 586 L 387 586 L 388 585 L 392 585 L 393 584 L 396 584 L 397 583 L 400 583 L 401 582 L 404 582 L 405 581 L 407 581 L 408 580 L 410 580 L 411 579 L 414 579 L 415 578 L 418 578 L 419 577 L 421 577 L 422 576 L 424 576 L 425 575 L 427 575 L 428 574 L 430 574 L 431 573 L 433 573 L 434 572 L 436 572 L 437 571 L 439 571 L 440 570 L 442 570 L 443 569 L 445 569 L 446 568 L 448 568 L 449 567 L 451 567 L 452 566 L 454 566 L 455 565 L 458 565 L 459 564 L 461 564 L 462 563 L 464 563 L 465 562 L 468 562 L 469 561 L 473 561 L 474 560 L 477 560 L 478 559 L 482 559 L 483 558 L 487 558 L 488 557 L 493 557 L 494 556 L 503 556 L 504 555 L 529 555 L 530 556 L 536 556 L 537 557 L 541 557 L 542 558 L 545 558 L 546 559 L 548 559 L 549 560 L 550 560 L 551 561 L 552 561 L 553 562 L 554 562 L 555 563 L 556 563 L 558 565 L 559 565 L 569 575 L 569 576 L 571 578 L 571 579 L 573 581 L 573 582 L 574 583 L 574 584 L 575 585 L 575 586 L 576 587 L 576 589 L 577 590 L 577 591 L 578 592 L 578 593 L 579 594 L 579 595 L 581 597 L 581 598 L 583 600 L 584 600 L 585 601 L 589 601 L 590 600 L 591 600 L 594 597 L 594 596 L 595 595 L 595 592 L 596 591 L 596 585 L 597 584 L 597 569 L 596 568 L 596 561 L 595 560 L 595 555 L 594 554 L 594 551 L 593 550 L 593 547 L 592 546 L 592 544 L 591 543 L 591 542 L 590 541 L 590 539 L 589 538 L 589 537 L 588 536 L 588 534 L 587 533 L 587 532 L 586 531 L 586 530 L 584 528 L 584 527 L 582 525 L 582 524 L 580 522 L 580 521 L 578 519 L 578 518 L 577 517 L 576 517 L 575 516 L 575 515 L 564 504 L 563 504 L 560 501 L 559 501 L 557 499 L 556 499 L 554 497 L 553 497 L 552 496 L 551 496 L 549 494 L 548 494 L 547 493 L 546 493 L 545 492 L 544 492 L 543 491 L 542 491 L 541 490 L 539 490 L 538 489 L 537 489 L 536 488 L 535 488 L 534 487 L 533 487 L 532 486 L 530 486 L 529 485 L 527 485 L 526 484 L 525 484 L 524 483 L 521 483 L 520 482 L 518 482 L 517 481 L 516 481 L 515 480 L 513 480 L 512 479 L 511 479 L 510 478 L 508 478 L 507 477 L 506 477 L 505 476 L 503 476 L 502 475 L 501 475 L 500 474 L 499 474 L 498 473 L 497 473 L 495 471 L 494 471 L 493 470 L 492 470 L 490 468 L 489 468 L 488 467 L 487 467 L 481 461 L 480 461 L 471 452 L 471 451 L 467 447 L 467 446 L 464 443 L 464 442 L 462 440 L 462 439 L 461 438 L 461 437 L 459 435 L 459 434 L 458 433 L 458 432 L 456 430 L 456 429 L 455 428 L 455 427 L 454 426 L 454 425 L 453 424 L 453 422 L 452 421 L 452 420 L 451 419 L 451 418 L 449 416 L 449 414 L 448 413 L 448 411 L 447 410 L 447 409 L 446 408 L 446 406 L 445 405 L 445 403 L 444 402 L 444 401 L 443 400 L 443 398 L 442 397 L 442 395 L 441 394 L 441 391 L 440 390 L 440 387 L 439 386 L 439 383 L 438 382 L 438 379 L 437 378 L 437 375 L 436 374 L 436 372 L 435 371 L 435 368 L 434 367 L 434 363 L 433 362 L 433 356 L 432 355 L 432 349 L 431 348 L 431 342 L 430 341 L 430 335 L 429 334 L 429 329 L 428 328 L 428 322 L 427 321 L 427 315 L 426 314 L 426 308 L 425 307 L 425 302 L 424 301 L 424 297 L 423 296 L 423 292 L 422 291 L 422 288 L 421 287 L 421 284 L 420 283 L 420 280 L 419 279 L 419 275 L 418 274 L 418 270 L 417 269 L 417 267 L 416 266 L 416 263 L 415 262 L 415 260 L 414 259 L 414 256 L 413 255 L 413 253 L 412 252 L 412 249 L 411 248 L 411 245 L 410 244 L 410 242 L 409 241 L 409 239 L 408 238 L 408 237 L 407 236 L 407 234 L 406 233 L 406 231 L 405 230 L 405 228 L 404 227 L 404 225 L 403 224 L 403 222 L 402 221 L 402 219 L 401 218 L 401 217 L 400 216 L 400 214 L 399 213 L 399 212 L 398 211 L 398 209 L 397 208 L 397 206 L 396 205 L 396 204 L 395 203 L 395 201 L 394 200 L 395 199 L 397 199 L 398 200 L 403 200 L 404 201 L 434 201 L 435 200 L 440 200 L 441 199 L 444 199 L 445 198 L 447 198 L 448 197 L 450 197 L 451 196 L 452 196 L 453 195 L 455 195 L 456 194 L 457 194 L 458 193 L 459 193 L 460 192 L 461 192 L 462 191 L 463 191 L 472 182 L 472 181 L 474 179 L 474 177 L 475 176 L 475 169 L 474 168 L 474 167 L 472 165 L 471 165 L 470 164 L 460 164 L 459 165 L 445 165 L 444 164 L 442 164 L 441 163 L 440 163 L 439 162 L 438 162 L 437 161 L 436 161 L 434 159 L 433 159 L 430 156 L 429 156 L 424 151 L 423 151 L 412 140 L 412 139 L 408 135 L 408 134 L 403 129 L 403 128 L 398 123 L 398 122 L 394 118 L 394 117 L 390 113 L 390 112 L 387 109 L 387 108 L 383 104 L 383 103 L 380 100 L 380 99 L 376 95 L 376 94 L 370 88 L 370 87 L 365 82 L 365 81 L 356 72 L 356 71 L 346 61 L 345 61 L 337 53 L 336 53 L 332 49 L 331 49 L 327 45 L 326 45 L 323 42 L 322 42 L 320 40 L 319 40 L 318 39 L 317 39 L 315 37 L 314 37 L 312 35 L 311 35 L 310 34 L 309 34 L 308 33 L 307 33 L 306 32 L 305 32 L 303 30 L 302 30 L 301 29 L 300 29 L 299 28 L 297 28 L 296 27 L 295 27 L 294 26 L 292 26 L 291 25 L 289 25 L 288 24 L 286 24 L 285 23 L 283 23 L 282 22 L 280 22 L 279 21 L 276 21 L 275 20 L 271 20 L 270 19 L 263 19 L 262 18 Z" fill="none" stroke="black" stroke-width="1" /></svg>