<?xml version="1.0" encoding="utf-8" ?>
<svg baseProfile="full" height="229" version="1.1" width="255" xmlns="http://www.w3.org/2000/svg" xmlns:ev="http://www.w3.org/2001/xml-events" xmlns:xlink="http://www.w3.org/1999/xlink"><defs /><path d="M 152 190 L 152 192 L 153 193 L 161 193 L 162 192 L 162 190 Z" fill="none" stroke="black" stroke-width="1" /><path d="M 138 182 L 137 183 L 136 183 L 134 185 L 134 186 L 133 187 L 133 196 L 137 200 L 139 200 L 140 201 L 143 201 L 144 200 L 145 200 L 146 199 L 147 199 L 148 198 L 148 197 L 149 196 L 149 195 L 146 195 L 146 196 L 144 198 L 142 198 L 141 199 L 140 198 L 139 198 L 136 195 L 136 194 L 135 193 L 136 192 L 149 192 L 149 187 L 148 186 L 148 185 L 146 183 L 145 183 L 144 182 Z" fill="none" stroke="black" stroke-width="1" /><path d="M 114 182 L 114 207 L 116 207 L 116 200 L 117 199 L 118 200 L 119 200 L 120 201 L 123 201 L 124 200 L 125 200 L 128 197 L 128 196 L 129 195 L 129 187 L 128 186 L 128 185 L 125 182 L 119 182 L 117 184 L 116 183 L 116 182 Z" fill="none" stroke="black" stroke-width="1" /><path d="M 97 182 L 96 183 L 95 183 L 93 185 L 93 187 L 95 187 L 98 184 L 103 184 L 105 186 L 105 188 L 104 189 L 103 189 L 102 190 L 97 190 L 96 191 L 95 191 L 94 192 L 93 192 L 93 193 L 92 194 L 92 197 L 93 198 L 93 199 L 94 200 L 96 200 L 97 201 L 100 201 L 101 200 L 102 200 L 103 199 L 105 199 L 106 200 L 109 200 L 108 199 L 108 186 L 107 185 L 107 184 L 105 182 Z" fill="none" stroke="black" stroke-width="1" /><path d="M 190 175 L 189 176 L 188 176 L 186 178 L 186 179 L 185 180 L 185 181 L 188 181 L 188 180 L 191 177 L 194 177 L 197 180 L 197 183 L 195 185 L 194 185 L 193 186 L 191 186 L 191 188 L 195 188 L 198 191 L 198 195 L 195 198 L 194 198 L 193 199 L 192 198 L 190 198 L 188 196 L 188 194 L 185 194 L 185 196 L 186 197 L 186 198 L 187 199 L 188 199 L 189 200 L 190 200 L 191 201 L 194 201 L 195 200 L 197 200 L 201 196 L 201 190 L 197 186 L 200 183 L 200 180 L 199 179 L 199 178 L 197 176 L 196 176 L 195 175 Z" fill="none" stroke="black" stroke-width="1" /><path d="M 174 175 L 174 176 L 171 179 L 170 179 L 168 181 L 167 181 L 167 184 L 168 183 L 169 183 L 170 182 L 171 182 L 172 181 L 173 182 L 173 200 L 176 200 L 176 175 Z" fill="none" stroke="black" stroke-width="1" /><path d="M 74 175 L 74 200 L 76 200 L 76 189 L 77 188 L 77 186 L 78 185 L 79 185 L 80 184 L 83 184 L 85 186 L 85 187 L 86 188 L 86 200 L 88 200 L 88 185 L 87 184 L 87 183 L 86 183 L 85 182 L 79 182 L 77 184 L 76 183 L 76 175 Z" fill="none" stroke="black" stroke-width="1" /><path d="M 54 175 L 52 177 L 51 177 L 51 178 L 50 179 L 50 184 L 53 187 L 55 187 L 56 188 L 58 188 L 59 189 L 62 189 L 63 190 L 64 190 L 66 192 L 66 195 L 64 197 L 63 197 L 62 198 L 57 198 L 56 197 L 55 197 L 52 194 L 52 193 L 51 192 L 49 192 L 49 195 L 50 196 L 50 197 L 52 199 L 53 199 L 54 200 L 56 200 L 57 201 L 61 201 L 62 200 L 64 200 L 65 199 L 66 199 L 68 197 L 68 196 L 69 195 L 69 191 L 65 187 L 63 187 L 62 186 L 60 186 L 59 185 L 56 185 L 55 184 L 54 184 L 53 183 L 53 180 L 56 177 L 61 177 L 62 178 L 63 178 L 65 180 L 65 182 L 68 182 L 68 180 L 67 179 L 67 178 L 65 176 L 64 176 L 63 175 Z" fill="none" stroke="black" stroke-width="1" /><path d="M 128 126 L 128 128 L 136 128 L 136 126 Z" fill="none" stroke="black" stroke-width="1" /><path d="M 141 114 L 141 116 L 140 117 L 140 121 L 139 122 L 139 124 L 142 124 L 143 123 L 144 123 L 145 122 L 146 123 L 148 123 L 149 124 L 149 125 L 150 126 L 150 129 L 149 130 L 149 131 L 148 132 L 147 132 L 146 133 L 144 133 L 141 130 L 141 129 L 139 129 L 139 131 L 140 132 L 140 133 L 141 133 L 142 134 L 143 134 L 144 135 L 146 135 L 147 134 L 149 134 L 151 132 L 151 131 L 152 130 L 152 125 L 151 124 L 151 123 L 149 121 L 143 121 L 142 120 L 142 117 L 143 116 L 151 116 L 151 114 Z" fill="none" stroke="black" stroke-width="1" /><path d="M 177 113 L 176 114 L 175 114 L 174 115 L 174 116 L 173 117 L 173 118 L 172 119 L 172 129 L 173 130 L 173 131 L 174 132 L 174 133 L 175 134 L 177 134 L 178 135 L 180 135 L 181 134 L 182 134 L 184 132 L 184 131 L 185 130 L 185 118 L 184 117 L 184 116 L 182 114 L 181 114 L 180 113 Z" fill="none" stroke="black" stroke-width="1" /><path d="M 160 113 L 159 114 L 158 114 L 157 115 L 157 116 L 156 117 L 156 118 L 155 119 L 155 129 L 156 130 L 156 131 L 157 132 L 157 133 L 158 134 L 160 134 L 161 135 L 163 135 L 164 134 L 165 134 L 167 132 L 167 131 L 168 130 L 168 118 L 167 117 L 167 116 L 165 114 L 164 114 L 163 113 Z" fill="none" stroke="black" stroke-width="1" /><path d="M 109 113 L 109 114 L 110 115 L 110 116 L 113 119 L 113 120 L 115 122 L 115 124 L 114 125 L 114 126 L 111 129 L 111 130 L 108 133 L 108 134 L 111 134 L 111 133 L 114 130 L 114 129 L 117 126 L 120 129 L 120 130 L 122 132 L 122 133 L 123 134 L 126 134 L 125 133 L 125 132 L 123 130 L 123 129 L 120 126 L 120 125 L 119 124 L 119 122 L 122 119 L 122 118 L 125 115 L 125 113 L 123 113 L 123 114 L 120 117 L 120 118 L 117 121 L 115 119 L 115 118 L 113 116 L 113 115 L 111 113 Z" fill="none" stroke="black" stroke-width="1" /><path d="M 89 113 L 89 134 L 105 134 L 105 133 L 104 132 L 92 132 L 91 131 L 91 126 L 93 124 L 103 124 L 103 122 L 92 122 L 91 121 L 91 117 L 93 115 L 104 115 L 104 113 Z" fill="none" stroke="black" stroke-width="1" /><path d="M 68 113 L 68 134 L 70 134 L 70 125 L 71 124 L 81 124 L 82 125 L 82 134 L 84 134 L 84 113 L 82 113 L 82 121 L 81 122 L 71 122 L 70 121 L 70 113 Z" fill="none" stroke="black" stroke-width="1" /><path d="M 27 18 L 26 19 L 26 20 L 25 21 L 25 23 L 24 24 L 24 27 L 23 28 L 23 31 L 22 32 L 22 35 L 21 36 L 21 40 L 20 41 L 20 47 L 19 48 L 19 75 L 20 76 L 20 82 L 21 83 L 21 87 L 22 88 L 22 92 L 23 93 L 23 96 L 24 97 L 24 99 L 25 100 L 25 102 L 26 103 L 26 104 L 27 105 L 225 105 L 226 104 L 226 102 L 227 101 L 227 99 L 228 98 L 228 96 L 229 95 L 229 92 L 230 91 L 230 87 L 231 86 L 231 81 L 232 80 L 232 73 L 233 72 L 233 51 L 232 50 L 232 43 L 231 42 L 231 37 L 230 36 L 230 33 L 229 32 L 229 29 L 228 28 L 228 25 L 227 24 L 227 22 L 226 21 L 226 19 L 225 19 L 224 18 Z" fill="none" stroke="black" stroke-width="1" /></svg>