<?xml version="1.0" encoding="utf-8" ?>
<svg baseProfile="full" height="433" version="1.1" width="736" xmlns="http://www.w3.org/2000/svg" xmlns:ev="http://www.w3.org/2001/xml-events" xmlns:xlink="http://www.w3.org/1999/xlink"><defs /><path d="M 382 16 L 382 18 L 381 19 L 368 19 L 368 20 L 367 21 L 350 21 L 350 22 L 349 23 L 344 23 L 344 24 L 343 25 L 332 25 L 332 26 L 331 27 L 326 27 L 326 29 L 325 30 L 321 30 L 321 31 L 320 32 L 312 32 L 312 33 L 311 34 L 310 34 L 310 35 L 309 36 L 303 36 L 303 37 L 302 38 L 299 38 L 299 40 L 298 41 L 294 41 L 294 42 L 293 43 L 287 43 L 287 44 L 286 45 L 285 45 L 285 46 L 284 47 L 281 47 L 281 48 L 280 49 L 278 49 L 278 51 L 277 52 L 274 52 L 274 53 L 273 54 L 269 54 L 269 57 L 268 58 L 265 58 L 265 59 L 264 60 L 263 60 L 263 62 L 262 63 L 258 63 L 258 64 L 257 65 L 256 65 L 256 66 L 255 67 L 254 67 L 254 68 L 253 69 L 249 69 L 249 70 L 248 71 L 247 71 L 247 73 L 246 74 L 245 74 L 245 75 L 244 76 L 242 76 L 242 77 L 241 78 L 240 78 L 240 79 L 239 80 L 238 80 L 238 81 L 237 82 L 236 82 L 236 84 L 235 85 L 233 85 L 233 86 L 232 87 L 231 87 L 231 88 L 230 89 L 229 89 L 229 90 L 228 91 L 226 91 L 226 95 L 225 96 L 224 96 L 224 97 L 223 98 L 222 98 L 222 99 L 221 100 L 220 100 L 220 101 L 219 102 L 217 102 L 217 103 L 216 104 L 215 104 L 215 108 L 214 109 L 213 109 L 213 110 L 212 111 L 211 111 L 211 114 L 210 115 L 208 115 L 208 116 L 207 117 L 206 117 L 206 119 L 205 120 L 204 120 L 204 123 L 203 124 L 202 124 L 202 127 L 201 128 L 199 128 L 199 132 L 198 133 L 197 133 L 197 136 L 196 137 L 195 137 L 195 138 L 194 139 L 193 139 L 193 145 L 192 146 L 190 146 L 190 147 L 189 148 L 188 148 L 188 154 L 187 155 L 186 155 L 186 158 L 185 159 L 184 159 L 184 163 L 183 164 L 181 164 L 181 169 L 180 170 L 118 170 L 118 171 L 117 172 L 107 172 L 107 174 L 106 175 L 103 175 L 103 176 L 102 177 L 94 177 L 94 178 L 93 179 L 91 179 L 91 180 L 90 181 L 85 181 L 85 182 L 84 183 L 82 183 L 82 185 L 81 186 L 78 186 L 78 187 L 77 188 L 73 188 L 73 189 L 72 190 L 71 190 L 71 191 L 70 192 L 69 192 L 69 193 L 68 194 L 67 194 L 67 196 L 66 197 L 64 197 L 64 198 L 63 199 L 62 199 L 62 200 L 61 201 L 60 201 L 60 202 L 59 203 L 58 203 L 58 204 L 57 205 L 55 205 L 55 207 L 54 208 L 53 208 L 53 209 L 52 210 L 51 210 L 51 213 L 50 214 L 49 214 L 49 218 L 48 219 L 46 219 L 46 220 L 45 221 L 44 221 L 44 224 L 43 225 L 42 225 L 42 229 L 41 230 L 40 230 L 40 235 L 39 236 L 37 236 L 37 242 L 36 243 L 35 243 L 35 246 L 34 247 L 33 247 L 33 248 L 32 249 L 28 249 L 28 253 L 27 254 L 26 254 L 26 255 L 25 256 L 24 256 L 24 259 L 23 260 L 22 260 L 22 266 L 21 267 L 19 267 L 19 270 L 18 271 L 17 271 L 17 284 L 18 284 L 19 285 L 19 288 L 21 288 L 22 289 L 22 295 L 23 295 L 24 296 L 24 297 L 25 297 L 26 298 L 26 303 L 27 303 L 28 304 L 28 334 L 30 334 L 31 335 L 31 341 L 32 341 L 33 342 L 33 347 L 34 347 L 35 348 L 35 352 L 36 352 L 37 353 L 37 356 L 39 356 L 40 357 L 40 358 L 41 358 L 42 359 L 42 361 L 43 361 L 44 362 L 44 363 L 45 363 L 46 364 L 46 365 L 48 365 L 49 366 L 49 367 L 50 367 L 51 368 L 51 369 L 52 369 L 53 370 L 53 372 L 59 372 L 60 373 L 60 374 L 61 374 L 62 375 L 62 376 L 72 376 L 73 377 L 73 378 L 99 378 L 100 379 L 100 380 L 102 380 L 103 381 L 103 385 L 104 385 L 105 386 L 105 387 L 106 387 L 107 388 L 107 389 L 108 389 L 109 390 L 109 391 L 111 391 L 112 392 L 112 394 L 113 394 L 114 395 L 114 396 L 115 396 L 116 397 L 116 398 L 120 398 L 121 399 L 121 400 L 122 400 L 123 401 L 123 402 L 126 402 L 127 403 L 127 405 L 131 405 L 132 406 L 132 407 L 135 407 L 136 408 L 136 409 L 142 409 L 143 410 L 143 411 L 151 411 L 152 412 L 152 413 L 178 413 L 178 412 L 179 411 L 187 411 L 187 410 L 188 409 L 194 409 L 194 408 L 195 407 L 196 407 L 196 406 L 197 405 L 203 405 L 203 403 L 204 402 L 205 402 L 205 401 L 206 400 L 210 400 L 210 399 L 211 398 L 214 398 L 214 397 L 215 396 L 216 396 L 216 395 L 217 394 L 219 394 L 219 392 L 220 391 L 221 391 L 221 390 L 222 389 L 223 389 L 223 388 L 224 387 L 225 387 L 225 386 L 226 385 L 228 385 L 228 381 L 229 380 L 230 380 L 230 379 L 231 378 L 498 378 L 499 379 L 499 383 L 500 383 L 501 384 L 501 385 L 503 385 L 504 386 L 504 387 L 505 387 L 506 388 L 506 389 L 507 389 L 508 390 L 508 391 L 509 391 L 510 392 L 510 394 L 512 394 L 513 395 L 513 396 L 514 396 L 515 397 L 515 398 L 518 398 L 519 399 L 519 400 L 521 400 L 522 401 L 522 402 L 525 402 L 526 403 L 526 405 L 530 405 L 531 406 L 531 407 L 532 407 L 533 408 L 533 409 L 541 409 L 542 410 L 542 411 L 548 411 L 549 412 L 549 413 L 577 413 L 577 412 L 578 411 L 584 411 L 584 410 L 585 409 L 593 409 L 593 408 L 594 407 L 597 407 L 597 406 L 598 405 L 602 405 L 602 403 L 603 402 L 604 402 L 604 401 L 605 400 L 608 400 L 608 399 L 609 398 L 613 398 L 613 395 L 614 394 L 617 394 L 617 390 L 618 389 L 622 389 L 622 388 L 623 387 L 624 387 L 624 384 L 625 383 L 626 383 L 626 381 L 627 380 L 629 380 L 629 379 L 630 378 L 658 378 L 658 377 L 659 376 L 667 376 L 667 375 L 668 374 L 671 374 L 671 373 L 672 372 L 678 372 L 678 368 L 679 367 L 683 367 L 683 366 L 684 365 L 685 365 L 685 364 L 686 363 L 687 363 L 687 362 L 688 361 L 689 361 L 689 357 L 690 356 L 692 356 L 692 353 L 693 352 L 694 352 L 694 348 L 695 347 L 696 347 L 696 324 L 697 323 L 698 323 L 698 313 L 699 312 L 701 312 L 701 289 L 702 288 L 703 288 L 703 287 L 704 286 L 705 286 L 705 282 L 706 281 L 707 281 L 707 280 L 708 279 L 710 279 L 710 278 L 711 277 L 712 277 L 712 269 L 713 268 L 714 268 L 714 247 L 713 247 L 712 246 L 712 241 L 711 241 L 710 240 L 710 236 L 708 236 L 707 235 L 707 234 L 706 234 L 705 233 L 705 232 L 704 232 L 703 231 L 703 230 L 702 230 L 701 229 L 701 227 L 699 227 L 698 226 L 698 219 L 697 219 L 696 218 L 696 208 L 695 208 L 694 207 L 694 201 L 693 201 L 692 200 L 692 197 L 690 197 L 689 196 L 689 192 L 688 192 L 687 191 L 687 190 L 686 190 L 685 189 L 685 186 L 684 186 L 683 185 L 683 183 L 681 183 L 680 182 L 680 181 L 679 181 L 678 180 L 678 179 L 677 179 L 676 178 L 676 177 L 672 177 L 671 176 L 671 175 L 670 175 L 669 174 L 669 172 L 645 172 L 644 171 L 644 170 L 636 170 L 635 169 L 635 166 L 634 166 L 633 165 L 633 159 L 632 159 L 631 158 L 631 157 L 630 157 L 629 156 L 629 150 L 627 150 L 626 149 L 626 148 L 625 148 L 624 147 L 624 144 L 623 144 L 622 143 L 622 139 L 621 139 L 620 138 L 620 135 L 618 135 L 617 134 L 617 131 L 616 131 L 615 130 L 615 128 L 614 128 L 613 127 L 613 124 L 612 124 L 611 123 L 611 122 L 609 122 L 608 121 L 608 117 L 607 117 L 606 116 L 606 115 L 605 115 L 604 114 L 604 113 L 603 113 L 602 112 L 602 109 L 600 109 L 599 108 L 599 106 L 598 106 L 597 105 L 597 104 L 596 104 L 595 103 L 595 102 L 594 102 L 593 101 L 593 100 L 591 100 L 590 99 L 590 96 L 587 96 L 586 95 L 586 91 L 585 91 L 584 90 L 584 89 L 582 89 L 581 88 L 581 87 L 580 87 L 579 86 L 579 85 L 578 85 L 577 84 L 577 82 L 576 82 L 575 81 L 575 80 L 573 80 L 572 79 L 572 78 L 571 78 L 570 77 L 570 76 L 569 76 L 568 75 L 568 74 L 564 74 L 563 73 L 563 71 L 562 71 L 561 70 L 561 69 L 560 69 L 559 68 L 559 67 L 558 67 L 557 66 L 557 65 L 553 65 L 552 64 L 552 63 L 551 63 L 550 62 L 550 60 L 549 60 L 548 59 L 548 58 L 544 58 L 543 57 L 543 56 L 542 56 L 541 55 L 541 54 L 537 54 L 536 53 L 536 52 L 535 52 L 534 51 L 534 49 L 531 49 L 530 48 L 530 47 L 526 47 L 525 46 L 525 45 L 524 45 L 523 44 L 523 43 L 517 43 L 516 42 L 516 41 L 513 41 L 512 40 L 512 38 L 508 38 L 507 37 L 507 36 L 501 36 L 500 35 L 500 34 L 499 34 L 498 33 L 498 32 L 490 32 L 489 31 L 489 30 L 485 30 L 484 29 L 484 27 L 479 27 L 478 26 L 478 25 L 467 25 L 466 24 L 466 23 L 461 23 L 460 22 L 460 21 L 443 21 L 442 20 L 442 19 L 427 19 L 426 18 L 426 16 Z" fill="none" stroke="black" stroke-width="1" /></svg>