<?xml version="1.0" encoding="utf-8" ?>
<svg baseProfile="full" height="425" version="1.1" width="171" xmlns="http://www.w3.org/2000/svg" xmlns:ev="http://www.w3.org/2001/xml-events" xmlns:xlink="http://www.w3.org/1999/xlink"><defs /><path d="M 20 19 L 19 20 L 19 105 L 20 106 L 82 106 L 83 107 L 83 146 L 82 147 L 76 147 L 75 148 L 72 148 L 71 149 L 69 149 L 68 150 L 66 150 L 65 151 L 64 151 L 63 152 L 62 152 L 60 154 L 59 154 L 55 158 L 54 158 L 52 160 L 52 161 L 48 165 L 48 166 L 47 167 L 47 168 L 45 170 L 45 171 L 44 172 L 44 174 L 43 175 L 43 177 L 42 178 L 42 181 L 41 182 L 41 198 L 42 199 L 42 202 L 43 203 L 43 205 L 44 206 L 44 208 L 45 209 L 45 210 L 46 211 L 46 212 L 48 214 L 48 215 L 51 218 L 51 219 L 55 223 L 56 223 L 59 226 L 60 226 L 62 228 L 63 228 L 64 229 L 65 229 L 66 230 L 68 230 L 69 231 L 70 231 L 71 232 L 74 232 L 75 233 L 82 233 L 83 234 L 83 273 L 82 274 L 79 274 L 78 275 L 74 275 L 73 276 L 70 276 L 69 277 L 68 277 L 67 278 L 65 278 L 64 279 L 63 279 L 61 281 L 60 281 L 58 283 L 57 283 L 50 290 L 50 291 L 47 294 L 47 295 L 46 296 L 46 297 L 45 298 L 45 299 L 44 300 L 44 301 L 43 302 L 43 304 L 42 305 L 42 308 L 41 309 L 41 326 L 42 327 L 42 330 L 43 331 L 43 333 L 44 334 L 44 335 L 45 336 L 45 337 L 46 338 L 46 339 L 47 340 L 47 341 L 49 343 L 49 344 L 57 352 L 58 352 L 61 355 L 62 355 L 63 356 L 64 356 L 65 357 L 66 357 L 67 358 L 69 358 L 70 359 L 72 359 L 73 360 L 76 360 L 77 361 L 82 361 L 83 362 L 83 403 L 85 403 L 85 362 L 86 361 L 91 361 L 92 360 L 95 360 L 96 359 L 98 359 L 99 358 L 101 358 L 102 357 L 103 357 L 104 356 L 105 356 L 106 355 L 107 355 L 109 353 L 110 353 L 119 344 L 119 343 L 121 341 L 121 340 L 123 338 L 123 336 L 124 335 L 124 334 L 125 333 L 125 331 L 126 330 L 126 328 L 127 327 L 127 320 L 128 319 L 128 316 L 127 315 L 127 308 L 126 307 L 126 305 L 125 304 L 125 302 L 124 301 L 124 300 L 123 299 L 123 298 L 122 297 L 122 296 L 121 295 L 121 294 L 119 292 L 119 291 L 111 283 L 110 283 L 108 281 L 107 281 L 105 279 L 104 279 L 103 278 L 101 278 L 100 277 L 99 277 L 98 276 L 95 276 L 94 275 L 90 275 L 89 274 L 86 274 L 85 273 L 85 234 L 86 233 L 93 233 L 94 232 L 97 232 L 98 231 L 100 231 L 101 230 L 102 230 L 103 229 L 104 229 L 105 228 L 106 228 L 108 226 L 109 226 L 112 223 L 113 223 L 117 219 L 117 218 L 120 215 L 120 214 L 122 212 L 122 211 L 123 210 L 123 209 L 124 208 L 124 207 L 125 206 L 125 204 L 126 203 L 126 200 L 127 199 L 127 193 L 128 192 L 128 188 L 127 187 L 127 181 L 126 180 L 126 177 L 125 176 L 125 174 L 124 173 L 124 172 L 123 171 L 123 170 L 122 169 L 122 168 L 120 166 L 120 165 L 117 162 L 117 161 L 113 157 L 112 157 L 109 154 L 108 154 L 106 152 L 105 152 L 104 151 L 103 151 L 102 150 L 100 150 L 99 149 L 97 149 L 96 148 L 94 148 L 93 147 L 86 147 L 85 146 L 85 107 L 86 106 L 148 106 L 149 105 L 149 20 L 148 19 Z" fill="none" stroke="black" stroke-width="1" /></svg>