<?xml version="1.0" encoding="utf-8" ?>
<svg baseProfile="full" height="293" version="1.1" width="188" xmlns="http://www.w3.org/2000/svg" xmlns:ev="http://www.w3.org/2001/xml-events" xmlns:xlink="http://www.w3.org/1999/xlink"><defs /><path d="M 122 254 L 122 256 L 123 257 L 131 257 L 132 256 L 132 254 Z" fill="none" stroke="black" stroke-width="1" /><path d="M 108 246 L 107 247 L 106 247 L 104 249 L 104 250 L 103 251 L 103 260 L 107 264 L 109 264 L 110 265 L 113 265 L 114 264 L 115 264 L 116 263 L 117 263 L 118 262 L 118 261 L 119 260 L 119 259 L 116 259 L 116 260 L 114 262 L 112 262 L 111 263 L 110 262 L 109 262 L 106 259 L 106 258 L 105 257 L 106 256 L 119 256 L 119 251 L 118 250 L 118 249 L 116 247 L 115 247 L 114 246 Z" fill="none" stroke="black" stroke-width="1" /><path d="M 84 246 L 84 271 L 86 271 L 86 264 L 87 263 L 88 264 L 89 264 L 90 265 L 93 265 L 94 264 L 95 264 L 98 261 L 98 260 L 99 259 L 99 251 L 98 250 L 98 249 L 95 246 L 89 246 L 87 248 L 86 247 L 86 246 Z" fill="none" stroke="black" stroke-width="1" /><path d="M 67 246 L 66 247 L 65 247 L 63 249 L 63 251 L 65 251 L 68 248 L 73 248 L 75 250 L 75 252 L 74 253 L 73 253 L 72 254 L 67 254 L 66 255 L 65 255 L 64 256 L 63 256 L 63 257 L 62 258 L 62 261 L 63 262 L 63 263 L 64 264 L 66 264 L 67 265 L 70 265 L 71 264 L 72 264 L 73 263 L 75 263 L 76 264 L 79 264 L 78 263 L 78 250 L 77 249 L 77 248 L 75 246 Z" fill="none" stroke="black" stroke-width="1" /><path d="M 164 239 L 164 240 L 161 243 L 160 243 L 158 245 L 157 245 L 157 248 L 158 247 L 159 247 L 160 246 L 161 246 L 162 245 L 163 246 L 163 264 L 166 264 L 166 239 Z" fill="none" stroke="black" stroke-width="1" /><path d="M 144 239 L 144 240 L 141 243 L 140 243 L 138 245 L 137 245 L 137 248 L 138 247 L 139 247 L 140 246 L 141 246 L 142 245 L 143 246 L 143 264 L 146 264 L 146 239 Z" fill="none" stroke="black" stroke-width="1" /><path d="M 44 239 L 44 264 L 46 264 L 46 253 L 47 252 L 47 250 L 48 249 L 49 249 L 50 248 L 53 248 L 55 250 L 55 251 L 56 252 L 56 264 L 58 264 L 58 249 L 57 248 L 57 247 L 56 247 L 55 246 L 49 246 L 47 248 L 46 247 L 46 239 Z" fill="none" stroke="black" stroke-width="1" /><path d="M 24 239 L 22 241 L 21 241 L 21 242 L 20 243 L 20 248 L 23 251 L 25 251 L 26 252 L 28 252 L 29 253 L 32 253 L 33 254 L 34 254 L 36 256 L 36 259 L 34 261 L 33 261 L 32 262 L 27 262 L 26 261 L 25 261 L 22 258 L 22 257 L 21 256 L 19 256 L 19 259 L 20 260 L 20 261 L 22 263 L 23 263 L 24 264 L 26 264 L 27 265 L 31 265 L 32 264 L 34 264 L 35 263 L 36 263 L 38 261 L 38 260 L 39 259 L 39 255 L 35 251 L 33 251 L 32 250 L 30 250 L 29 249 L 26 249 L 25 248 L 24 248 L 23 247 L 23 244 L 26 241 L 31 241 L 32 242 L 33 242 L 35 244 L 35 246 L 38 246 L 38 244 L 37 243 L 37 242 L 35 240 L 34 240 L 33 239 Z" fill="none" stroke="black" stroke-width="1" /><path d="M 72 191 L 72 193 L 80 193 L 80 191 Z" fill="none" stroke="black" stroke-width="1" /><path d="M 123 178 L 123 179 L 124 180 L 124 181 L 127 184 L 127 185 L 129 187 L 129 189 L 128 190 L 128 191 L 125 194 L 125 195 L 122 198 L 122 199 L 125 199 L 125 198 L 128 195 L 128 194 L 131 191 L 134 194 L 134 195 L 136 197 L 136 198 L 137 199 L 140 199 L 139 198 L 139 197 L 137 195 L 137 194 L 134 191 L 134 190 L 133 189 L 133 187 L 136 184 L 136 183 L 139 180 L 139 178 L 137 178 L 137 179 L 134 182 L 134 183 L 131 186 L 129 184 L 129 183 L 127 181 L 127 180 L 125 178 Z" fill="none" stroke="black" stroke-width="1" /><path d="M 103 178 L 103 179 L 104 180 L 104 181 L 107 184 L 107 185 L 109 187 L 109 189 L 108 190 L 108 191 L 105 194 L 105 195 L 102 198 L 102 199 L 105 199 L 105 198 L 108 195 L 108 194 L 111 191 L 114 194 L 114 195 L 116 197 L 116 198 L 117 199 L 120 199 L 119 198 L 119 197 L 117 195 L 117 194 L 114 191 L 114 190 L 113 189 L 113 187 L 116 184 L 116 183 L 119 180 L 119 178 L 117 178 L 117 179 L 114 182 L 114 183 L 111 186 L 109 184 L 109 183 L 107 181 L 107 180 L 105 178 Z" fill="none" stroke="black" stroke-width="1" /><path d="M 83 178 L 83 179 L 84 180 L 84 181 L 87 184 L 87 185 L 89 187 L 89 189 L 88 190 L 88 191 L 85 194 L 85 195 L 82 198 L 82 199 L 85 199 L 85 198 L 88 195 L 88 194 L 91 191 L 94 194 L 94 195 L 96 197 L 96 198 L 97 199 L 100 199 L 99 198 L 99 197 L 97 195 L 97 194 L 94 191 L 94 190 L 93 189 L 93 187 L 96 184 L 96 183 L 99 180 L 99 178 L 97 178 L 97 179 L 94 182 L 94 183 L 91 186 L 89 184 L 89 183 L 87 181 L 87 180 L 85 178 Z" fill="none" stroke="black" stroke-width="1" /><path d="M 54 178 L 54 199 L 56 199 L 56 192 L 57 191 L 63 191 L 64 190 L 66 190 L 67 189 L 68 189 L 68 188 L 69 187 L 69 181 L 67 179 L 65 179 L 64 178 Z" fill="none" stroke="black" stroke-width="1" /><path d="M 89 19 L 88 20 L 83 20 L 82 21 L 79 21 L 78 22 L 76 22 L 75 23 L 73 23 L 72 24 L 70 24 L 69 25 L 68 25 L 67 26 L 66 26 L 65 27 L 64 27 L 62 29 L 61 29 L 59 31 L 58 31 L 56 33 L 55 33 L 45 43 L 45 44 L 43 46 L 43 47 L 41 49 L 41 50 L 39 52 L 39 53 L 38 54 L 38 55 L 37 56 L 37 57 L 36 58 L 36 60 L 35 61 L 35 62 L 34 63 L 34 66 L 33 67 L 33 70 L 32 71 L 32 76 L 31 77 L 31 91 L 32 92 L 32 97 L 33 98 L 33 101 L 34 102 L 34 104 L 35 105 L 35 107 L 36 108 L 36 109 L 37 110 L 37 111 L 38 112 L 38 113 L 39 114 L 39 115 L 40 116 L 40 117 L 41 118 L 41 119 L 44 122 L 44 123 L 48 127 L 48 128 L 52 132 L 53 132 L 57 136 L 58 136 L 60 138 L 61 138 L 63 140 L 64 140 L 65 141 L 66 141 L 67 142 L 68 142 L 69 143 L 70 143 L 71 144 L 73 144 L 74 145 L 76 145 L 77 146 L 79 146 L 80 147 L 84 147 L 85 148 L 106 148 L 107 147 L 111 147 L 112 146 L 115 146 L 116 145 L 117 145 L 118 144 L 120 144 L 121 143 L 122 143 L 123 142 L 124 142 L 125 141 L 126 141 L 127 140 L 128 140 L 129 139 L 130 139 L 132 137 L 133 137 L 136 134 L 137 134 L 146 125 L 146 124 L 149 121 L 149 120 L 151 118 L 151 117 L 152 116 L 152 115 L 153 114 L 153 113 L 154 112 L 154 111 L 155 110 L 155 109 L 156 108 L 156 106 L 157 105 L 157 103 L 158 102 L 158 100 L 159 99 L 159 95 L 160 94 L 160 74 L 159 73 L 159 69 L 158 68 L 158 65 L 157 64 L 157 62 L 156 61 L 156 60 L 155 59 L 155 57 L 154 56 L 154 55 L 153 54 L 153 53 L 151 51 L 151 50 L 150 49 L 150 48 L 148 46 L 148 45 L 141 38 L 141 37 L 140 37 L 135 32 L 134 32 L 132 30 L 131 30 L 129 28 L 128 28 L 127 27 L 126 27 L 125 26 L 124 26 L 123 25 L 122 25 L 121 24 L 120 24 L 119 23 L 117 23 L 116 22 L 114 22 L 113 21 L 110 21 L 109 20 L 103 20 L 102 19 Z" fill="none" stroke="black" stroke-width="1" /></svg>